<svg id="Layer_1" data-name="Layer 1" xmlns="http://www.w3.org/2000/svg" viewBox="0 0 29.01 26.77"><defs><style>.cls-1{fill:#f6ed54;}</style></defs><title>Векторный смарт-объект2</title><path class="cls-1" d="M-1137.62,262.3a2.55,2.55,0,0,1,1.22.48l6.41,4.59a.79.79,0,0,0,1.15-.21c.68-.82,1.34-1.65,2-2.48q6.28-7.76,12.54-15.51a2.09,2.09,0,0,1,2.38-.78,1.94,1.94,0,0,1,1,2.91c-.9,1.32-1.86,2.59-2.8,3.88l-13.73,18.87a2,2,0,0,1-2.65.75,2.55,2.55,0,0,1-.55-.43c-2.77-2.85-5.52-5.72-8.31-8.55a2,2,0,0,1,.48-3.27A5.11,5.11,0,0,1-1137.62,262.3Z" transform="translate(1139.61 -248.27)"/></svg>