<svg fill="#ff8359" version="1.1" id="Objects" xmlns="http://www.w3.org/2000/svg" xmlns:xlink="http://www.w3.org/1999/xlink" x="0px" y="0px" viewBox="0 0 164.3 166.7" style="enable-background:new 0 0 164.3 166.7;" xml:space="preserve">
<path d="M85.5,8.7c0-0.4-0.1-0.8-0.5-1.1c-2.2-1.5-4.7-2.5-6.8-4.2c-1-0.8-2.1-2.3-3.5-2.4c-1.2,0-2.2,1.1-3,1.8
c-2.5,2.1-4.9,4.3-7.3,6.5c-1.3,1.2,0.5,2.7,1.6,2.2c0.2,0.1,0.4,0.3,0.7,0.3c6.3,0.5,12.7-0.2,18.9-1.1
C86.8,10.5,86.5,8.9,85.5,8.7z M71.3,8.7c-0.8,0.1-1.6,0.1-2.3,0.2c0.8-0.7,1.7-1.5,2.5-2.2C71.5,7.4,71.5,8,71.3,8.7z M72.3,8.6
c0.2-1,0.4-2,0.2-3c0.4-0.5,0.9-0.9,1.3-1.2c0,0,0,0,0,0c0.2,1.3,0.3,2.7,0.3,4C73.6,8.5,73,8.6,72.3,8.6z M74.9,4.3
c0.1,0.1,0.3,0.2,0.6,0.4c0.3,0.2,0.7,0.4,1,0.6c0,1,0.1,2.1,0.2,3.1c-0.5,0-0.9,0-1.4,0C75.4,7,75.3,5.7,74.9,4.3z M78,8.4
c0-0.7-0.1-1.4-0.2-2.1c1,0.8,2,1.5,3.1,2.1C79.9,8.4,78.9,8.4,78,8.4z"/>
<path d="M100.7,1.5c-0.1,0-0.1,0-0.2,0c-0.1-0.3-0.4-0.5-0.8-0.5C93.3,0,87-0.4,80.6,0.5c-0.4-0.2-0.7-0.3-1.1-0.4
c-0.8-0.3-1.4,0.8-0.9,1.4c0,0.4,0.3,0.9,0.8,0.9c0.1,0,0.2,0,0.3,0c1.5,1.2,3.1,2.3,4.6,3.4C86.2,7,88,9,90.2,9.7
c0.5,0.2,1-0.1,1.2-0.5c1.6-1,3.1-2.1,4.7-3.1c1.7-1,3.5-1.7,5.2-2.6C102.1,3,101.7,1.4,100.7,1.5z M88.5,5.1c0-0.7,0-1.4,0-2.1
c0-0.5-0.8-0.5-0.8,0c0,0.5,0,1,0,1.5c-0.5-0.4-1.1-0.7-1.5-1c-0.6-0.4-1.2-0.8-1.7-1.1c2.1,0,4.2,0.1,6.2,0.2
c-0.3,1.4-0.3,2.9,0,4.3C90,6.2,89.2,5.7,88.5,5.1z M91.6,2.7C91.6,2.7,91.6,2.7,91.6,2.7c0.3,0,0.7,0,1,0
c-0.1,0.7-0.1,1.5-0.1,2.2c-0.3,0.3-0.6,0.5-0.8,0.8C91.6,4.8,91.6,3.7,91.6,2.7z M93.6,4.2c0-0.5,0-0.9-0.1-1.4
c0.7,0.1,1.4,0.1,2.1,0.2C94.9,3.3,94.2,3.7,93.6,4.2z"/>
<path d="M121.5,19.4c0.2-0.3,0.3-0.8,0-1.2c-1.3-2.4-3.1-4.3-4.2-6.8c-0.5-1.1-0.8-3-2-3.7c-1.1-0.6-2.4,0-3.5,0.2
c-3.2,0.7-6.3,1.6-9.4,2.5c-1.7,0.5-0.8,2.6,0.4,2.7c0.1,0.2,0.2,0.4,0.5,0.5c5.4,3.3,11.4,5.6,17.4,7.6
C121.8,21.6,122.3,20,121.5,19.4z M108.9,13c-0.7-0.3-1.5-0.6-2.2-0.9c1.1-0.3,2.2-0.5,3.3-0.8C109.6,11.9,109.3,12.4,108.9,13z
M109.8,13.3c0.7-0.7,1.2-1.6,1.5-2.5c0.6-0.2,1.2-0.4,1.7-0.5c0,0,0,0,0,0c-0.4,1.3-0.9,2.5-1.5,3.7
C110.9,13.8,110.4,13.6,109.8,13.3z M114.1,10.7c0.1,0.2,0.2,0.4,0.3,0.6c0.2,0.3,0.4,0.7,0.6,1c-0.5,0.9-0.8,1.9-1.2,2.9
c-0.4-0.2-0.8-0.4-1.3-0.6C113.3,13.4,113.8,12.1,114.1,10.7z M114.9,15.7c0.3-0.7,0.6-1.3,0.8-2c0.6,1.1,1.1,2.3,1.7,3.3
C116.6,16.6,115.8,16.1,114.9,15.7z"/>
<path d="M138.3,19.8c0,0-0.1,0-0.1-0.1c0-0.3-0.1-0.6-0.5-0.8c-5.3-3.8-10.7-7-16.8-9.1c-0.2-0.3-0.5-0.6-0.8-0.9
c-0.5-0.6-1.6,0.1-1.4,0.8c-0.2,0.4-0.1,0.9,0.3,1.2c0.1,0.1,0.2,0.1,0.3,0.2c0.8,1.7,1.7,3.4,2.6,5.1c1.1,2,1.8,4.6,3.4,6.2
c0.4,0.4,0.9,0.4,1.3,0.1c1.9-0.1,3.7-0.5,5.5-0.6c1.9-0.1,3.8,0.1,5.8,0C138.9,21.9,139.3,20.3,138.3,19.8z M125.7,17.5
c0.3-0.6,0.6-1.2,0.9-1.8c0.2-0.5-0.5-0.8-0.7-0.4c-0.2,0.4-0.5,0.9-0.7,1.3c-0.3-0.6-0.6-1.1-0.9-1.6c-0.3-0.6-0.7-1.2-1-1.8
c1.8,1,3.6,2,5.4,3c-1,1.1-1.5,2.4-1.9,3.8C126.6,19.2,126.2,18.4,125.7,17.5z M129.6,16.8C129.6,16.8,129.6,16.8,129.6,16.8
c0.3,0.1,0.6,0.3,0.9,0.5c-0.4,0.6-0.8,1.3-1.1,2c-0.4,0.1-0.8,0.2-1.1,0.3C128.7,18.7,129.2,17.7,129.6,16.8z M130.7,19
c0.2-0.4,0.4-0.8,0.6-1.2c0.6,0.4,1.2,0.7,1.8,1.1C132.3,18.8,131.5,18.9,130.7,19z"/>
<path d="M146.1,43.9c0.3-0.2,0.6-0.6,0.5-1.1c-0.1-2.7-0.8-5.2-0.6-8c0.1-1.3,0.7-3.1-0.1-4.2c-0.7-1-2.2-1.1-3.2-1.4
c-3.1-0.8-6.3-1.4-9.5-2.1c-1.8-0.4-1.9,2-0.8,2.6c0,0.2,0,0.5,0.2,0.7c3.3,5.4,7.6,10.2,12,14.7C145.3,46,146.5,44.8,146.1,43.9z
M137.7,32.4c-0.5-0.6-1-1.2-1.6-1.8c1.1,0.3,2.2,0.5,3.3,0.7C138.9,31.8,138.3,32.1,137.7,32.4z M138.3,33.2
c0.9-0.4,1.8-0.9,2.5-1.6c0.6,0.1,1.3,0.2,1.7,0.4c0,0,0,0,0,0c-0.9,1-1.9,1.8-3,2.6C139.1,34.1,138.7,33.7,138.3,33.2z
M143.4,32.8c0,0.2,0,0.4,0,0.7c0,0.4,0,0.8,0,1.2c-0.8,0.6-1.6,1.3-2.4,2c-0.3-0.4-0.6-0.7-0.8-1.1
C141.4,34.8,142.5,33.9,143.4,32.8z M141.8,37.6c0.5-0.5,1.1-0.9,1.6-1.4c0,1.3-0.1,2.5,0.1,3.7C143,39.2,142.4,38.4,141.8,37.6z"
/>
<path d="M160.8,51.9c0,0-0.1-0.1-0.1-0.1c0.1-0.3,0.1-0.6,0-0.9c-3-5.7-6.4-11.1-10.9-15.8c-0.1-0.4-0.2-0.8-0.3-1.1
c-0.2-0.8-1.5-0.7-1.6,0.1c-0.3,0.3-0.5,0.8-0.3,1.2c0.1,0.1,0.1,0.2,0.2,0.3c0,1.9,0,3.8,0,5.7c0,2.3-0.5,4.9,0.2,7.1
c0.2,0.5,0.7,0.8,1.2,0.7c1.7,0.7,3.5,1.2,5.2,2c1.8,0.8,3.4,1.8,5.1,2.6C160.4,54,161.4,52.8,160.8,51.9z M150.7,44.2
c0.6-0.4,1.1-0.8,1.7-1.2c0.4-0.3,0-1-0.5-0.7c-0.4,0.3-0.8,0.6-1.2,0.9c0-0.6-0.1-1.3-0.1-1.8c0-0.7-0.1-1.4-0.1-2.1
c1.2,1.7,2.4,3.4,3.5,5.2c-1.4,0.6-2.5,1.5-3.5,2.5C150.6,46.1,150.7,45.1,150.7,44.2z M154.4,45.3
C154.4,45.3,154.5,45.3,154.4,45.3c0.2,0.3,0.4,0.6,0.6,0.8c-0.7,0.4-1.3,0.8-1.8,1.3c-0.4-0.1-0.8-0.2-1.1-0.2
C152.8,46.5,153.6,45.9,154.4,45.3z M154.4,47.8c0.4-0.3,0.7-0.5,1.1-0.9c0.4,0.6,0.7,1.2,1.1,1.8C155.9,48.3,155.1,48,154.4,47.8z
"/>
<path d="M156.8,76.9c0.4,0,0.8-0.2,1-0.7c1.1-2.4,1.7-5,3.1-7.4c0.6-1.1,2-2.4,1.8-3.8c-0.2-1.2-1.4-2-2.2-2.7
c-2.5-2.1-5-4.1-7.5-6.2c-1.4-1.1-2.6,0.9-1.9,2c-0.1,0.2-0.2,0.4-0.2,0.7c0.5,6.3,2.2,12.6,4,18.5
C155.2,78.4,156.7,77.9,156.8,76.9z M154.5,62.9c-0.2-0.8-0.4-1.5-0.6-2.3c0.9,0.7,1.7,1.5,2.6,2.2
C155.9,62.8,155.2,62.9,154.5,62.9z M154.8,63.8c1,0.1,2,0.1,3-0.3c0.5,0.3,1.1,0.7,1.4,1.1c0,0,0,0,0,0c-1.3,0.4-2.6,0.8-3.9,1
C155,65,154.9,64.4,154.8,63.8z M159.4,65.7c-0.1,0.2-0.2,0.4-0.3,0.6c-0.1,0.4-0.3,0.7-0.5,1.1c-1,0.1-2,0.4-3,0.7
c-0.1-0.5-0.2-0.9-0.2-1.4C156.8,66.7,158.1,66.3,159.4,65.7z M155.9,69.4c0.7-0.2,1.4-0.3,2.1-0.5c-0.6,1.1-1.2,2.2-1.6,3.4
C156.2,71.3,156,70.3,155.9,69.4z"/>
<path d="M166.2,90.7c0,0,0-0.1,0-0.1c0.2-0.2,0.4-0.5,0.4-0.9c-0.1-6.5-0.6-12.8-2.5-19c0.1-0.4,0.2-0.7,0.3-1.1
c0.2-0.8-1-1.3-1.5-0.7c-0.4,0.1-0.8,0.4-0.8,0.9c0,0.1,0,0.2,0,0.3c-0.9,1.7-1.8,3.4-2.6,5.1c-1,2-2.7,4.1-3,6.4
c-0.1,0.6,0.3,1,0.7,1.1c1.2,1.4,2.6,2.7,3.7,4.1c1.2,1.5,2.2,3.2,3.4,4.7C165,92.4,166.5,91.8,166.2,90.7z M160.8,79.2
c0.7-0.1,1.4-0.2,2-0.3c0.5-0.1,0.4-0.9-0.1-0.8c-0.5,0.1-1,0.1-1.5,0.2c0.3-0.6,0.5-1.2,0.8-1.7c0.3-0.6,0.6-1.3,0.8-1.9
c0.3,2.1,0.5,4.1,0.8,6.2c-1.5-0.1-2.9,0.2-4.2,0.7C159.9,80.9,160.3,80.1,160.8,79.2z M163.6,81.9
C163.6,81.9,163.6,81.9,163.6,81.9c0.1,0.3,0.1,0.7,0.1,1c-0.8,0-1.5,0.1-2.2,0.3c-0.3-0.3-0.6-0.5-0.9-0.7
C161.6,82.3,162.6,82.1,163.6,81.9z M162.5,84.1c0.4-0.1,0.9-0.2,1.3-0.3c0.1,0.7,0.1,1.4,0.2,2.1C163.5,85.3,163,84.7,162.5,84.1z
"/>
<path d="M151.4,111.1c0.4,0.2,0.8,0.1,1.2-0.2c2.1-1.7,3.8-3.7,6.1-5.2c1.1-0.7,2.9-1.3,3.3-2.6
c0.4-1.1-0.4-2.4-0.8-3.4c-1.2-3-2.6-6-3.9-8.9c-0.7-1.6-2.7-0.3-2.6,0.9c-0.2,0.1-0.4,0.3-0.5,0.5c-2.4,5.8-3.8,12.2-4.8,18.3
C149.2,111.8,150.9,112,151.4,111.1z M155.7,97.6c0.2-0.8,0.4-1.5,0.5-2.3c0.4,1,0.9,2.1,1.3,3.1C156.9,98.2,156.3,97.9,155.7,97.6
z M155.5,98.6c0.8,0.5,1.8,1,2.7,1.1c0.3,0.5,0.6,1.1,0.7,1.6c0,0,0,0,0,0c-1.3-0.2-2.6-0.5-3.9-0.9
C155.2,99.8,155.4,99.2,155.5,98.6z M158.8,102.4c-0.1,0.1-0.3,0.2-0.5,0.4c-0.3,0.3-0.6,0.5-0.9,0.7c-1-0.3-2-0.5-3-0.7
c0.1-0.4,0.3-0.9,0.4-1.3C156,102,157.4,102.4,158.8,102.4z M154,104c0.7,0.2,1.4,0.4,2.1,0.5c-1,0.7-2.1,1.4-3,2.2
C153.4,105.9,153.7,105,154,104z"/>
<path d="M153.5,127.8c0,0,0-0.1,0-0.2c0.3,0,0.6-0.2,0.7-0.6c2.9-5.8,5.2-11.7,6.4-18.1c0.3-0.3,0.5-0.6,0.8-0.9
c0.5-0.6-0.3-1.6-1-1.3c-0.4-0.1-0.9,0-1.1,0.5c0,0.1-0.1,0.2-0.1,0.3c-1.6,1.1-3.1,2.2-4.6,3.4c-1.8,1.4-4.3,2.5-5.6,4.3
c-0.3,0.5-0.2,1,0.1,1.3c0.4,1.8,1.1,3.6,1.5,5.4c0.4,1.9,0.5,3.8,0.9,5.7C151.6,128.7,153.2,128.8,153.5,127.8z M153.9,115
c0.7,0.2,1.3,0.4,2,0.6c0.5,0.1,0.8-0.6,0.3-0.8c-0.5-0.2-0.9-0.3-1.4-0.5c0.5-0.4,1-0.8,1.4-1.1c0.5-0.4,1.1-0.9,1.6-1.3
c-0.7,2-1.4,3.9-2.1,5.9c-1.3-0.8-2.6-1.1-4.1-1.3C152.3,116.1,153.1,115.6,153.9,115z M155.2,118.7
C155.2,118.7,155.2,118.7,155.2,118.7c-0.1,0.3-0.2,0.6-0.4,0.9c-0.7-0.3-1.4-0.5-2.1-0.7c-0.2-0.4-0.3-0.7-0.5-1
C153.2,118.2,154.2,118.5,155.2,118.7z M153.2,120.2c0.4,0.1,0.9,0.3,1.3,0.4c-0.3,0.6-0.5,1.3-0.8,1.9
C153.6,121.7,153.4,120.9,153.2,120.2z"/>
<path d="M131,139.2c0.2,0.3,0.6,0.5,1.1,0.4c2.7-0.5,5-1.6,7.8-1.9c1.2-0.1,3.1,0.2,4.2-0.8c0.9-0.8,0.8-2.3,0.9-3.4
c0.3-3.2,0.4-6.5,0.6-9.7c0.1-1.8-2.3-1.5-2.7-0.4c-0.2,0-0.5,0.1-0.7,0.3c-4.8,4.1-8.9,9.1-12.6,14.2
C128.8,138.8,130.1,139.8,131,139.2z M141,129.1c0.5-0.6,1-1.2,1.5-1.8c-0.1,1.1-0.2,2.2-0.2,3.4
C141.8,130.2,141.4,129.7,141,129.1z M140.4,129.9c0.5,0.9,1.1,1.7,1.9,2.2c0,0.6,0,1.3-0.1,1.8c0,0,0,0,0,0
c-1.1-0.8-2.1-1.6-3.1-2.6C139.5,130.8,140,130.4,140.4,129.9z M141.6,134.8c-0.2,0-0.4,0.1-0.7,0.1c-0.4,0.1-0.8,0.2-1.1,0.2
c-0.7-0.7-1.5-1.4-2.4-2c0.3-0.3,0.6-0.7,1-1C139.3,133.2,140.3,134.1,141.6,134.8z M136.5,134.1c0.5,0.5,1.1,0.9,1.6,1.4
c-1.2,0.2-2.5,0.3-3.7,0.6C135.2,135.4,135.8,134.7,136.5,134.1z"/>
<path d="M125.4,155c0,0,0.1-0.1,0.1-0.1c0.3,0.1,0.6,0,0.9-0.2c5.2-3.9,10-8,13.9-13.2c0.4-0.1,0.7-0.3,1.1-0.4
c0.7-0.3,0.5-1.6-0.3-1.6c-0.3-0.3-0.8-0.4-1.2-0.1c-0.1,0.1-0.2,0.2-0.2,0.2c-1.9,0.3-3.8,0.6-5.6,0.9c-2.2,0.4-4.9,0.3-6.9,1.3
c-0.5,0.3-0.6,0.8-0.5,1.3c-0.4,1.8-0.7,3.7-1.1,5.5c-0.5,1.9-1.3,3.6-1.8,5.5C123.3,154.9,124.7,155.8,125.4,155z M131.5,143.8
c0.5,0.5,1,1,1.5,1.5c0.4,0.4,0.9-0.2,0.6-0.6c-0.3-0.4-0.7-0.7-1.1-1.1c0.6-0.1,1.2-0.3,1.8-0.4c0.7-0.1,1.4-0.3,2-0.4
c-1.5,1.4-3,2.9-4.6,4.2c-0.8-1.3-1.8-2.2-3.1-3C129.6,144.1,130.5,143.9,131.5,143.8z M130.9,147.7
C130.9,147.7,131,147.7,130.9,147.7c-0.2,0.2-0.5,0.5-0.7,0.7c-0.5-0.6-1-1.1-1.5-1.6c0-0.4,0-0.8,0-1.2
C129.4,146.3,130.2,147,130.9,147.7z M128.5,148.1c0.3,0.3,0.7,0.6,1,0.9c-0.5,0.4-1,0.9-1.6,1.3
C128.2,149.6,128.4,148.8,128.5,148.1z"/>
<path d="M100.1,155c0.1,0.4,0.4,0.7,0.8,0.9c2.6,0.7,5.2,0.9,7.8,1.9c1.2,0.5,2.7,1.6,4.1,1.2c1.1-0.3,1.7-1.7,2.3-2.6
c1.7-2.8,3.3-5.6,4.9-8.4c0.9-1.6-1.3-2.4-2.2-1.6c-0.2-0.1-0.5-0.1-0.7-0.1c-6.1,1.5-12.1,4.1-17.7,6.9
C98.3,153.6,99.1,155.1,100.1,155z M113.6,150.5c0.7-0.3,1.4-0.6,2.2-0.9c-0.6,1-1.2,1.9-1.7,2.9
C113.8,151.9,113.7,151.2,113.6,150.5z M112.7,150.9c0.1,1,0.3,2,0.7,2.9c-0.3,0.6-0.5,1.2-0.9,1.5c0,0,0,0,0,0
c-0.6-1.2-1.2-2.4-1.6-3.7C111.5,151.4,112.1,151.2,112.7,150.9z M111.5,155.8c-0.2-0.1-0.4-0.1-0.7-0.2c-0.4-0.1-0.8-0.2-1.1-0.3
c-0.3-1-0.7-1.9-1.2-2.9c0.4-0.2,0.9-0.3,1.3-0.5C110.2,153.4,110.7,154.7,111.5,155.8z M107.4,152.9c0.3,0.7,0.5,1.3,0.8,2
c-1.2-0.4-2.4-0.8-3.6-1.1C105.5,153.5,106.4,153.2,107.4,152.9z"/>
<path d="M87.9,166.5c0,0,0.1,0,0.1-0.1c0.2,0.2,0.5,0.3,0.9,0.2c6.4-1.1,12.6-2.6,18.4-5.4c0.4,0,0.8,0.1,1.2,0.1
c0.8,0,1.1-1.2,0.5-1.6c-0.1-0.4-0.6-0.8-1-0.6c-0.1,0-0.2,0.1-0.3,0.1c-1.8-0.6-3.6-1.2-5.4-1.8c-2.2-0.7-4.5-2-6.8-2
c-0.6,0-0.9,0.4-1,0.9c-1.2,1.4-2.3,3-3.5,4.3c-1.3,1.5-2.8,2.7-4.1,4.1C86.1,165.5,86.9,166.9,87.9,166.5z M98.4,159.2
c0.2,0.7,0.4,1.3,0.6,2c0.2,0.5,0.9,0.3,0.8-0.3c-0.1-0.5-0.3-1-0.5-1.4c0.6,0.2,1.2,0.3,1.8,0.5c0.7,0.2,1.3,0.4,2,0.5
c-2,0.6-4,1.2-6,1.7c-0.1-1.5-0.6-2.8-1.4-4.1C96.6,158.6,97.5,159,98.4,159.2z M96.2,162.5C96.2,162.5,96.2,162.5,96.2,162.5
c-0.3,0.1-0.6,0.2-1,0.3c-0.1-0.7-0.4-1.4-0.6-2.2c0.2-0.3,0.4-0.7,0.6-1C95.5,160.6,95.8,161.5,96.2,162.5z M93.8,161.7
c0.1,0.4,0.3,0.9,0.5,1.3c-0.7,0.2-1.3,0.3-2,0.5C92.9,162.9,93.4,162.3,93.8,161.7z"/>
<path d="M65.4,155c-0.1,0.4,0,0.8,0.4,1.1c2,1.8,4.2,3.2,6.1,5.2c0.8,0.9,1.7,2.6,3.1,2.9c1.2,0.2,2.3-0.7,3.2-1.3
c2.8-1.7,5.5-3.5,8.2-5.3c1.5-1-0.1-2.8-1.3-2.5c-0.2-0.2-0.4-0.3-0.6-0.4c-6.1-1.5-12.6-1.8-18.9-1.9
C64.4,152.9,64.5,154.6,65.4,155z M79.4,157.2c0.8,0.1,1.6,0.1,2.3,0.1c-1,0.6-1.9,1.2-2.9,1.8C79.1,158.4,79.2,157.8,79.4,157.2z
M78.4,157.1c-0.4,0.9-0.7,1.9-0.7,2.9c-0.5,0.4-1,0.8-1.5,1c0,0,0,0,0,0c0-1.3,0.1-2.7,0.3-4C77.2,157,77.8,157,78.4,157.1z
M75.2,160.9c-0.1-0.1-0.3-0.3-0.5-0.5c-0.3-0.3-0.6-0.5-0.9-0.8c0.2-1,0.2-2.1,0.2-3.1c0.5,0.1,0.9,0.1,1.4,0.2
C75.1,158.1,75,159.5,75.2,160.9z M72.8,156.4c-0.1,0.7-0.1,1.4-0.2,2.1c-0.9-0.9-1.7-1.8-2.7-2.6
C70.9,156.1,71.9,156.3,72.8,156.4z"/>
<path d="M49.3,159.7c0.1,0,0.1,0,0.2,0c0.1,0.3,0.3,0.5,0.7,0.6c6.2,1.9,12.4,3.3,18.8,3.5c0.3,0.2,0.7,0.4,1,0.6
c0.7,0.4,1.5-0.6,1.1-1.2c0.1-0.4-0.2-0.9-0.7-1c-0.1,0-0.2,0-0.3-0.1c-1.3-1.4-2.7-2.7-4-4c-1.6-1.6-3.1-3.8-5.1-4.9
c-0.5-0.3-1-0.1-1.3,0.3c-1.7,0.7-3.4,1.6-5.1,2.3c-1.8,0.7-3.7,1.1-5.5,1.8C48.1,158,48.3,159.6,49.3,159.7z M62,158
c-0.1,0.7-0.2,1.4-0.3,2c-0.1,0.5,0.7,0.7,0.8,0.1c0.1-0.5,0.2-1,0.2-1.5c0.5,0.4,0.9,0.9,1.4,1.3c0.5,0.5,1,0.9,1.5,1.4
c-2-0.4-4.1-0.8-6.1-1.2c0.6-1.4,0.7-2.8,0.6-4.2C60.6,156.7,61.3,157.4,62,158z M58.5,159.9C58.5,159.9,58.5,159.9,58.5,159.9
c-0.3,0-0.7-0.1-1-0.2c0.2-0.7,0.3-1.5,0.4-2.2c0.3-0.2,0.7-0.4,1-0.7C58.8,157.9,58.6,158.9,58.5,159.9z M56.8,158.1
c-0.1,0.4-0.1,0.9-0.1,1.4c-0.7-0.2-1.3-0.3-2-0.5C55.4,158.8,56.1,158.5,56.8,158.1z"/>
<path d="M34.5,139.2c-0.3,0.3-0.4,0.7-0.2,1.2c0.9,2.5,2.3,4.7,3,7.4c0.3,1.2,0.3,3.1,1.4,4c1,0.7,2.4,0.4,3.5,0.3
c3.2-0.2,6.5-0.6,9.7-1c1.8-0.2,1.2-2.5,0-2.8c-0.1-0.2-0.2-0.4-0.4-0.6c-4.8-4.1-10.4-7.4-16-10.3C34.5,137,33.8,138.5,34.5,139.2
z M46,147.6c0.7,0.4,1.3,0.8,2,1.2c-1.1,0.1-2.2,0.2-3.4,0.3C45.1,148.5,45.5,148,46,147.6z M45.1,147c-0.8,0.6-1.5,1.4-1.9,2.3
c-0.6,0.1-1.3,0.2-1.8,0.2c0,0,0,0,0,0c0.6-1.2,1.3-2.4,2.1-3.4C44.1,146.4,44.6,146.7,45.1,147z M40.5,149
c-0.1-0.2-0.1-0.4-0.2-0.6c-0.2-0.4-0.3-0.7-0.4-1.1c0.6-0.8,1.1-1.7,1.6-2.7c0.4,0.3,0.8,0.5,1.1,0.8
C41.7,146.5,41,147.6,40.5,149z M40.5,143.9c-0.4,0.6-0.8,1.2-1.1,1.8c-0.4-1.2-0.7-2.4-1.2-3.5C38.9,142.8,39.7,143.3,40.5,143.9z
"/>
<path d="M18,136.1c0,0,0.1,0,0.1,0.1c0,0.3,0,0.6,0.3,0.9c4.6,4.5,9.5,8.6,15.2,11.7c0.2,0.3,0.4,0.7,0.6,1
c0.4,0.7,1.6,0.2,1.5-0.6c0.2-0.3,0.3-0.9-0.1-1.2c-0.1-0.1-0.2-0.1-0.3-0.2c-0.5-1.8-1.1-3.6-1.8-5.4c-0.7-2.2-1-4.8-2.3-6.7
c-0.3-0.5-0.9-0.5-1.3-0.3c-1.9-0.1-3.7-0.1-5.6-0.3c-1.9-0.2-3.8-0.7-5.7-0.9C17.7,134.1,17.1,135.6,18,136.1z M30,140.4
c-0.4,0.5-0.8,1.1-1.2,1.7c-0.3,0.4,0.3,0.9,0.7,0.5c0.3-0.4,0.6-0.8,0.9-1.2c0.2,0.6,0.5,1.2,0.6,1.7c0.2,0.7,0.5,1.3,0.8,1.9
c-1.7-1.3-3.3-2.5-4.9-3.8c1.1-1,1.9-2.2,2.5-3.5C29.5,138.6,29.7,139.5,30,140.4z M26.1,140.5C26.1,140.5,26.1,140.5,26.1,140.5
c-0.3-0.2-0.5-0.4-0.8-0.6c0.5-0.6,0.9-1.2,1.4-1.8c0.4,0,0.8-0.1,1.1-0.1C27.3,138.8,26.7,139.6,26.1,140.5z M25.4,138.1
c-0.3,0.4-0.5,0.7-0.7,1.1c-0.5-0.4-1.1-0.9-1.6-1.3C23.8,138.1,24.6,138.1,25.4,138.1z"/>
<path d="M14.1,111.2c-0.4,0.1-0.6,0.5-0.7,1c-0.3,2.7-0.1,5.3-0.6,8c-0.3,1.2-1.1,2.9-0.5,4.2c0.5,1.1,2,1.4,3,1.9
c3,1.3,6,2.4,9.1,3.5c1.7,0.6,2.2-1.7,1.2-2.5c0-0.2,0-0.5-0.1-0.7c-2.4-5.8-5.9-11.3-9.6-16.4C15.2,109.2,13.8,110.2,14.1,111.2z
M20.6,123.8c0.4,0.7,0.8,1.3,1.3,2c-1-0.4-2.1-0.9-3.1-1.3C19.3,124.3,19.9,124,20.6,123.8z M20,123c-1,0.2-1.9,0.6-2.7,1.2
c-0.6-0.2-1.2-0.4-1.7-0.6c0,0,0,0,0,0c1.1-0.8,2.2-1.5,3.4-2.1C19.4,121.9,19.7,122.4,20,123z M15,122.6c0-0.2,0.1-0.4,0.1-0.7
c0-0.4,0.1-0.8,0.1-1.2c0.9-0.5,1.8-1,2.7-1.6c0.2,0.4,0.4,0.8,0.7,1.2C17.2,120.9,16.1,121.6,15,122.6z M17.3,118
c-0.6,0.4-1.2,0.7-1.8,1.1c0.2-1.2,0.5-2.5,0.5-3.7C16.4,116.3,16.9,117.2,17.3,118z"/>
<path d="M0.8,101c0,0,0.1,0.1,0.1,0.1c-0.2,0.2-0.2,0.6-0.1,0.9c2.1,6.1,4.6,12,8.3,17.3c0,0.4,0,0.8,0.1,1.2
c0.1,0.8,1.4,0.9,1.6,0.2c0.4-0.2,0.7-0.7,0.4-1.1c-0.1-0.1-0.1-0.2-0.2-0.3c0.3-1.9,0.6-3.8,0.9-5.6c0.3-2.3,1.3-4.7,0.9-7
c-0.1-0.6-0.6-0.8-1-0.9c-1.6-1-3.3-1.8-4.8-2.8c-1.6-1-3.1-2.3-4.6-3.4C1.5,99,0.3,100,0.8,101z M9.6,110.2
c-0.6,0.3-1.2,0.6-1.8,0.9c-0.5,0.3-0.1,1,0.4,0.7c0.5-0.2,0.9-0.4,1.3-0.7c-0.1,0.6-0.1,1.3-0.2,1.8c-0.1,0.7-0.2,1.4-0.2,2.1
c-0.9-1.9-1.8-3.7-2.6-5.6c1.4-0.3,2.7-1.1,3.8-2C9.9,108.3,9.7,109.3,9.6,110.2z M6,108.5C6,108.5,6,108.5,6,108.5
c-0.2-0.3-0.3-0.6-0.4-0.9c0.7-0.3,1.4-0.6,2-1c0.4,0.1,0.7,0.3,1.1,0.4C7.8,107.5,6.9,108,6,108.5z M6.5,106.1
c-0.4,0.2-0.8,0.4-1.2,0.7c-0.3-0.6-0.5-1.3-0.8-1.9C5.1,105.3,5.8,105.7,6.5,106.1z"/>
<path d="M8.7,76.9c-0.4,0-0.8,0.1-1.1,0.5c-1.5,2.2-2.5,4.7-4.2,6.8c-0.8,1-2.3,2.1-2.4,3.5c0,1.2,1.1,2.2,1.8,3
c2.1,2.5,4.3,4.9,6.5,7.3c1.2,1.3,2.7-0.5,2.2-1.6c0.1-0.2,0.3-0.4,0.3-0.7c0.5-6.3-0.2-12.7-1.1-18.9C10.5,75.6,8.9,75.9,8.7,76.9
z M8.7,91.1c0.1,0.8,0.1,1.6,0.2,2.3c-0.7-0.8-1.5-1.7-2.2-2.5C7.4,90.9,8,91,8.7,91.1z M8.6,90.1c-1-0.2-2-0.4-3-0.2
c-0.5-0.4-0.9-0.9-1.2-1.3c0,0,0,0,0,0c1.3-0.2,2.7-0.3,4-0.3C8.5,88.9,8.6,89.5,8.6,90.1z M4.3,87.5c0.1-0.1,0.2-0.3,0.4-0.6
c0.2-0.3,0.4-0.7,0.6-1c1,0,2.1-0.1,3.1-0.2c0,0.5,0,0.9,0,1.4C7,87,5.7,87.1,4.3,87.5z M8.4,84.5c-0.7,0-1.4,0.1-2.1,0.2
c0.8-1,1.5-2,2.1-3.1C8.4,82.5,8.4,83.5,8.4,84.5z"/>
<path d="M1.5,61.8c0,0.1,0,0.1,0,0.2C1.2,62.1,1,62.3,1,62.7c-1,6.4-1.4,12.8-0.5,19.2C0.3,82.2,0.2,82.6,0,83
c-0.3,0.8,0.8,1.4,1.4,0.9c0.4,0,0.9-0.3,0.9-0.8c0-0.1,0-0.2,0-0.3c1.2-1.5,2.3-3.1,3.4-4.6c1.3-1.9,3.3-3.7,4-5.8
c0.2-0.5-0.1-1-0.5-1.2c-1-1.6-2.1-3.1-3.1-4.7c-1-1.7-1.7-3.5-2.6-5.2C3,60.3,1.4,60.7,1.5,61.8z M5.1,74c-0.7,0-1.4,0-2.1,0
c-0.5,0-0.5,0.8,0,0.8c0.5,0,1,0,1.5,0c-0.4,0.5-0.7,1.1-1,1.5c-0.4,0.6-0.8,1.2-1.1,1.7c0-2.1,0.1-4.2,0.2-6.2
c1.4,0.3,2.9,0.3,4.3,0C6.2,72.5,5.7,73.2,5.1,74z M2.7,70.9C2.7,70.9,2.7,70.9,2.7,70.9c0-0.3,0-0.7,0-1C3.5,70,4.2,70,5,69.9
c0.3,0.3,0.5,0.6,0.8,0.8C4.8,70.8,3.7,70.8,2.7,70.9z M4.2,68.9c-0.5,0-0.9,0-1.4,0.1c0-0.7,0.1-1.4,0.2-2.1
C3.3,67.6,3.7,68.3,4.2,68.9z"/>
<path d="M19.4,43.9c-0.3-0.2-0.8-0.3-1.2,0c-2.4,1.3-4.3,3.1-6.8,4.2c-1.1,0.5-3,0.8-3.7,2c-0.6,1.1,0,2.4,0.2,3.5
c0.7,3.2,1.6,6.3,2.5,9.4c0.5,1.7,2.6,0.8,2.7-0.4c0.2-0.1,0.4-0.2,0.5-0.5c3.3-5.4,5.6-11.4,7.6-17.4C21.6,43.6,20,43.1,19.4,43.9
z M13,56.6c-0.3,0.7-0.6,1.5-0.9,2.2c-0.3-1.1-0.5-2.2-0.8-3.3C11.9,55.8,12.4,56.2,13,56.6z M13.3,55.7c-0.7-0.7-1.6-1.2-2.5-1.5
c-0.2-0.6-0.4-1.2-0.5-1.7c0,0,0,0,0,0c1.3,0.4,2.5,0.9,3.7,1.5C13.8,54.5,13.6,55.1,13.3,55.7z M10.7,51.4
c0.2-0.1,0.4-0.2,0.6-0.3c0.3-0.2,0.7-0.4,1-0.6c0.9,0.5,1.9,0.8,2.9,1.2c-0.2,0.4-0.4,0.8-0.6,1.3C13.4,52.2,12.1,51.7,10.7,51.4z
M15.7,50.5c-0.7-0.3-1.3-0.6-2-0.8c1.1-0.6,2.3-1.1,3.3-1.7C16.6,48.8,16.1,49.7,15.7,50.5z"/>
<path d="M19.8,27.2c0,0,0,0.1-0.1,0.1c-0.3,0-0.6,0.1-0.8,0.5c-3.8,5.3-7,10.7-9.1,16.8c-0.3,0.2-0.6,0.5-0.9,0.8
C8.4,45.9,9,47,9.8,46.8c0.4,0.2,0.9,0.1,1.2-0.3c0.1-0.1,0.1-0.2,0.2-0.3c1.7-0.8,3.4-1.7,5.1-2.6c2-1.1,4.6-1.8,6.2-3.4
c0.4-0.4,0.4-0.9,0.1-1.3c-0.1-1.9-0.5-3.7-0.6-5.5c-0.1-1.9,0.1-3.8,0-5.8C21.9,26.6,20.3,26.2,19.8,27.2z M17.5,39.7
c-0.6-0.3-1.2-0.6-1.8-0.9c-0.5-0.2-0.8,0.5-0.4,0.7c0.4,0.2,0.9,0.5,1.3,0.7c-0.6,0.3-1.1,0.6-1.6,0.9c-0.6,0.3-1.2,0.7-1.8,1
c1-1.8,2-3.6,3-5.4c1.1,1,2.4,1.5,3.8,1.9C19.2,38.9,18.4,39.3,17.5,39.7z M16.8,35.8C16.8,35.8,16.8,35.8,16.8,35.8
c0.1-0.3,0.3-0.6,0.5-0.9c0.6,0.4,1.3,0.8,2,1.1c0.1,0.4,0.2,0.8,0.3,1.1C18.7,36.7,17.7,36.3,16.8,35.8z M19,34.7
c-0.4-0.2-0.8-0.4-1.2-0.6c0.4-0.6,0.7-1.2,1.1-1.8C18.8,33.2,18.9,34,19,34.7z"/>
<path d="M47.7,16.3c-0.2-0.3-0.5-0.6-1-0.6c-2.7-0.2-5.3,0.3-8-0.2c-1.2-0.2-3-1-4.2-0.3c-1,0.6-1.3,2-1.7,3.1
c-1.1,3.1-2,6.2-3,9.3c-0.5,1.7,1.8,2.1,2.5,1.1c0.2,0,0.5,0,0.7-0.1C38.7,25.8,44,21.9,48.9,18C49.8,17.2,48.7,16,47.7,16.3z
M35.5,23.5c-0.6,0.5-1.3,0.9-1.9,1.4c0.4-1.1,0.7-2.1,1.1-3.2C35,22.3,35.3,22.9,35.5,23.5z M36.3,22.9c-0.3-1-0.7-1.9-1.3-2.7
c0.1-0.6,0.3-1.3,0.5-1.7c0,0,0,0,0,0c0.9,1,1.6,2.1,2.3,3.3C37.4,22.2,36.8,22.6,36.3,22.9z M36.4,17.9c0.2,0,0.4,0,0.7,0
c0.4,0,0.8,0,1.2,0.1c0.5,0.9,1.1,1.7,1.8,2.5c-0.4,0.2-0.8,0.5-1.2,0.7C38.2,20,37.4,18.9,36.4,17.9z M41.1,19.9
c-0.4-0.6-0.8-1.2-1.2-1.7c1.2,0.1,2.5,0.3,3.7,0.3C42.8,18.9,41.9,19.4,41.1,19.9z"/>
<path d="M57.1,2.4c0,0-0.1,0.1-0.1,0.1c-0.2-0.2-0.6-0.2-0.9,0c-6,2.4-11.7,5.3-16.8,9.3c-0.4,0.1-0.8,0.1-1.1,0.2
c-0.8,0.1-0.8,1.4-0.1,1.6c0.2,0.4,0.7,0.6,1.1,0.4c0.1-0.1,0.2-0.1,0.3-0.2c1.9,0.2,3.8,0.4,5.7,0.6c2.3,0.2,4.8,1,7,0.5
c0.6-0.1,0.8-0.6,0.8-1.1c0.9-1.6,1.6-3.4,2.5-5c0.9-1.7,2.1-3.2,3.1-4.8C59.2,3,58,1.8,57.1,2.4z M48.4,11.7
c-0.3-0.6-0.7-1.2-1-1.8c-0.3-0.4-1,0-0.7,0.4c0.2,0.4,0.5,0.9,0.8,1.3c-0.6,0-1.3-0.1-1.8-0.1c-0.7,0-1.4-0.1-2.1-0.1
c1.8-1,3.6-2,5.5-3c0.4,1.4,1.2,2.6,2.2,3.7C50.3,11.9,49.4,11.8,48.4,11.7z M49.9,8.1C49.9,8.1,49.9,8.1,49.9,8.1
c0.3-0.2,0.6-0.3,0.9-0.5c0.3,0.7,0.7,1.3,1.1,2c-0.1,0.4-0.2,0.7-0.3,1.1C51,9.8,50.5,8.9,49.9,8.1z M52.4,8.3
c-0.2-0.4-0.5-0.8-0.8-1.1c0.6-0.3,1.2-0.6,1.8-0.9C53.1,6.9,52.7,7.6,52.4,8.3z"/>
</svg>