<?xml version="1.0" encoding="utf-8"?>
<!-- Generator: Adobe Illustrator 23.0.0, SVG Export Plug-In . SVG Version: 6.00 Build 0)  -->
<svg fill="#ff5319" version="1.1" id="Слой_1" xmlns="http://www.w3.org/2000/svg" xmlns:xlink="http://www.w3.org/1999/xlink" x="0px" y="0px"
	 viewBox="0 0 512 512" style="enable-background:new 0 0 512 512;" xml:space="preserve">
<path d="M324,288h21.4v15H324V288z"/>
<path d="M166.6,288H291v15H166.6V288z"/>
<path d="M324,254h21.4v15H324V254z"/>
<path d="M166.6,254H291v15H166.6V254z"/>
<path d="M324,220h21.4v15H324V220z"/>
<path d="M166.6,220H291v15H166.6V220z"/>
<path d="M324,356.1h21.4v15H324V356.1z"/>
<path d="M324,322.1h21.4v15H324V322.1z"/>
<path d="M167.3,322.1H291v15H167.3V322.1z"/>
<path d="M353.9,412.8v-15h-11v-10.6h-15v10.6h-11v36.9h22v7h-22v15h11v11.9h15v-11.9h11v-37h-22v-6.9H353.9z"/>
<path d="M209.4,74.1l-4.2-15.7h-38v15h26.4l25.7,96.1h3.2c-0.7,2.2-1.1,4.5-1.1,6.9c0,12.1,9.8,21.9,21.9,21.9
	c12.1,0,21.9-9.8,21.9-21.9c0-2.4-0.4-4.8-1.1-6.9H281c-0.7,2.2-1.1,4.5-1.1,6.9c0,12.1,9.8,21.9,21.9,21.9
	c12.1,0,21.9-9.8,21.9-21.9c0-12.1-9.8-21.9-21.9-21.9h-70.9l-1.4-5.4h87.3l16.1-60.1h6.1v-15H209.4z M317.4,89.1l-4,15.1h-23.6
	V89.1H317.4z M274.7,89.1v15.1h-18.6V89.1H274.7z M241.1,89.1v15.1h-23.6l-4-15.1H241.1z M250.3,176.5c0,3.8-3.1,6.9-6.9,6.9
	s-6.9-3.1-6.9-6.9s3.1-6.9,6.9-6.9S250.3,172.7,250.3,176.5z M308.7,176.5c0,3.8-3.1,6.9-6.9,6.9s-6.9-3.1-6.9-6.9s3.1-6.9,6.9-6.9
	S308.7,172.7,308.7,176.5z M225.5,134.2l-4-15.1h19.6v15.1H225.5z M256.1,134.2v-15.1h18.6v15.1H256.1z M289.7,134.2v-15.1h19.6
	l-4,15.1H289.7z"/>
<path d="M282.8,445.9v15H304v-66h-21.3v15h6.3v36H282.8z"/>
<path d="M437.8,0H187.6c-35.4,0-64.2,28.8-64.2,64.2v279.4h15V64.2c0-27.1,22.1-49.2,49.2-49.2h209.1c-14,11.8-23,29.5-23,49.2
	v383.6c0,27.1-22.1,49.2-49.2,49.2c-27.1,0-49.2-22.1-49.2-49.2v-76.7H291v-15H10v91.7c0,35.4,28.8,64.2,64.2,64.2h250.3
	c35.4,0,64.1-28.8,64.1-64.2V111.2h49.2v-15h-49.2v-32c0-27.1,22.1-49.2,49.2-49.2c27.1,0,49.2,22.1,49.2,49.2v87.7h-85.9v15H502
	V64.2C502,28.8,473.2,0,437.8,0z M74.2,497C47.1,497,25,474.9,25,447.8v-76.7h235.3v76.7c0,19.7,8.9,37.4,23,49.2H74.2z"/>
<path d="M177.3,403H97.8v-15h79.5V403z M87.8,403h-15v-15h15V403z M62.8,403h-15v-15h15V403z"/>
<path d="M358,42.5h-71.7v-15H358V42.5z M276.3,42.5h-15v-15h15V42.5z M251.3,42.5h-15v-15h15V42.5z"/>
</svg>
