<?xml version="1.0" encoding="utf-8"?>
<!-- Generator: Adobe Illustrator 23.0.0, SVG Export Plug-In . SVG Version: 6.00 Build 0)  -->
<svg version="1.1" id="OBJECTS" xmlns="http://www.w3.org/2000/svg" xmlns:xlink="http://www.w3.org/1999/xlink" x="0px" y="0px"
	 viewBox="0 0 251.5 299.3" style="enable-background:new 0 0 251.5 299.3;" xml:space="preserve">
<style type="text/css">
	.st0{fill:#ff7547;}
</style>
<path class="st0" d="M203.6,280.8c-12.4-0.7-11.8-15.9-11.5-24.7c0.3-8-1.2-14.9-6.3-21.2c-1.3-1.6-2.7-3-4.1-4.4
	c3.1-0.6,6.1-2,8.4-4.3c1.3-1.3,2-2.5,1.3-4.3c-0.8-1.8-2.5-3.9-4-5.2c-2.5-2.2-6.6-3.5-9.4-1c-2.9,2.7-1.4,7-1.3,10.6
	c-2.8-2.1-5.7-4-8.6-5.9c-4-2.6-8.2-5.4-10.5-9.7c-2.5-4.6-2.3-9.8-2.2-14.9c2.6,2.9,7.4,3.7,10.2-0.1c4.2-5.7-2.6-12.4-7.9-14.3
	c16.7-7.2,26.7-25.3,28.6-43.7c2.4-23.5-7.3-48.2-27.9-60.8c-18.9-11.6-44.3-10.1-60,6.3c-0.7,0.8-1.4,1.5-2.1,2.3
	c-6.2-15.3-20.9-26-37.3-27.9c-18.7-2.2-40.4,6.6-50.3,23.2c-10,16.7-6,40.1,0.8,57.3c7.1,17.9,20.6,33.5,39.3,39.4
	c7.6,2.4,16.2,2.8,24.3,1c-2.9,3.1-6,7.8-3.6,10.8c1,1.3,3,1.7,4.5,1.3c1-0.3,1.9-0.9,2.6-1.6c0.8-0.8,1.5-2.7,2.3-3.3
	c1.5-0.9,4.3,1.8,6.3,1.4c1.7-0.3,3.3-1.6,4-3.2c1.9-4.4-2.3-8-6.3-8.5c-0.3,0-0.5,0.1-0.7,0.2c-0.1,0-0.1-0.1-0.2-0.1
	c7-3.2,13-8.4,16.5-15.6c3.9,5.9,8.8,11.3,14.5,15.6c8.3,6.3,19.2,11.1,29.5,8.8c0.3,0.3,0.8,0.4,1.4,0.4c0.7,0,1.4-0.1,2.1-0.2
	c-2.8,3.6-4.2,8.7-2.2,12.2c1.3,2.3,4.2,3.5,6.6,2.2c1.9-1,2.9-3.1,3.4-5.2c0.1,0.2,0.2,0.4,0.3,0.6c0,0,0,0.1,0,0.1
	c-1.2,9.2-0.3,17.3,7.1,23.6c4.1,3.4,8.6,6.2,12.9,9.2c-2.4,0.1-4.8,0.9-6.4,3c-2.3,2.8-2.2,6.7,0.2,9.4c1.7,1.9,6.1,5.5,8.6,3.5
	c2.9-2.3,3.5-8.1,3-11.7c1.9,1.6,3.6,3.4,5.2,5.5c4,5.2,5.5,10.9,5.5,17.5c-0.1,5.1-0.9,10.4,0.2,15.5c1.4,6.4,5.9,12.9,13.1,12.6
	C204.6,282.3,204.6,280.9,203.6,280.8z M82.8,177.6c0.2,0,0.3,0.1,0.5,0.1c0,0,0.1,0.1,0.1,0.1c0.2,0.2,0.5,0.2,0.7,0.1
	c1.7,0.6,3.4,1.8,3.3,3.8c-0.2,4.9-3.7,2.5-5.5,1.7c-1.3-0.6-2.2-1.3-3.6-0.5c-1.9,1.1-4.2,7.9-6,3.8c-1.3-3.1,2.5-7.1,4.6-9.3
	c1.3-0.4,2.6-0.9,3.8-1.4c0.5,0.1,0.9,0.3,1.3,0.6C82,177.1,82.3,177.5,82.8,177.6z M55.4,174.6c-17.4-3.2-31.1-16.1-39-31.4
	C8.7,128.3,4,108.5,8.3,92C13,73.6,32.5,62,50.7,61c18.8-1.1,36.6,9.8,43.3,27.6c0,0,0,0.1,0,0.1c-0.9,1.4-1.8,2.9-2.6,4.4
	c-4.7-10-13.4-17.4-23.9-20.8c-0.7-0.2-1.1,0.8-0.5,1.1C77.2,77.9,84.3,86,88.6,96.1c0.2,0.5,0.6,0.8,1,0.9
	c-6.3,15.9-3.9,35.5,2.5,50.7c1.4,3.3,3.1,6.6,4.9,9.7C87.3,170.5,71.7,177.6,55.4,174.6z M144,180.1c-0.5,0-0.9,0.2-1.2,0.4
	c-6.2,0.2-11.9-0.6-18.1-1.9c-11.5-5.5-21.3-16.8-26.5-27c-8.9-17.5-12.3-42.3-1.3-59.6c10.8-17.1,33.3-22.4,51.6-15.2
	c20.4,8.1,32.5,28.7,33.6,50.1C183.4,150.6,170.7,178.7,144,180.1z M154.4,190.9c-0.2-0.8-1.7-0.9-2,0.1c-0.4,1.5-0.7,3.2-1.7,4.5
	c-1.3,1.7-3.4,1.6-4.5-0.1c-0.8-1.4-0.5-3.2-0.1-4.6c0.7-2.6,2-5,3.9-6.8c1.8-0.4,3.6-0.9,5.3-1.5c-0.1,0.6,0.2,1.3,1,1.5
	c3.6,0.9,7.7,3.9,7.8,8c0.1,2.8-2.4,4.6-5.1,3.9c-2.1-0.6-3.5-2.7-4.3-4.6C154.6,191,154.5,190.9,154.4,190.9z M177.1,238.1
	c-0.7,2-1.5,3.7-3.9,2.8c-0.9-0.3-1.9-1.1-2.6-1.7c-2.5-2.1-3.3-5-1.1-7.7c1.8-2.2,4.6-2.7,7.3-2.4c0.1,0.1,0.2,0.2,0.3,0.2
	c-2.5,1.4-4.4,3.8-5.4,6.4c-0.2,0.5,0.6,0.8,0.9,0.4c1.3-2.4,3-4,5.1-5.2c0.1,0,0.2,0,0.2,0c0,0,0,0,0,0.1
	C177.9,233.3,177.8,235.7,177.1,238.1z M180.3,228.6c1.7-1.8,3.4-3.6,5.1-5.4c0.7-0.8-0.4-2-1.2-1.2c-1.9,1.9-3.7,3.8-5.6,5.8
	c-0.1,0-0.1,0-0.2,0c-0.2-0.1-0.4-0.3-0.6-0.4c0.4-2.2,0-4.4,0.1-6.6c0.2-4.8,4.9-5.3,8-2.6c1,0.9,2,2,2.7,3.2
	c1.3,2.4,0.3,3.6-1.8,5c-2,1.4-4.2,2.1-6.6,2.4C180.4,228.7,180.4,228.7,180.3,228.6z"/>
<path class="st0" d="M147.5,289.4c-12.2-3-15.8-15.4-18-26.3c-2.1-10-4.5-19.2-11.5-26.9c-6.9-7.6-15.8-12.1-24.4-17.5
	c-1.8-1.1-3.5-2.4-5-3.8c2,0.4,4-0.4,5.3-2c2.2-2.8,1.5-7.3,0.1-10.2c-1.2-2.6-4.1-3.4-6.7-2.3c-2.8,1.2-4,3.9-4.8,6.6
	c-2.9-5.8-3.7-12.5-1.6-19.6c0.2-0.6-0.8-1-1-0.4c-2.9,6.7-2.8,14.2,0.2,20.6c-2.5-1.5-5.7-2.6-8.4-1.4c-3.1,1.4-2.2,5.8-1.2,8.4
	c1.1,2.7,3.7,6.2,6.7,6.9c1.2,0.3,2.1-0.2,2.9-1.2c1.6-1.9,2.9-4.2,4.2-6.3c8,8.9,20.8,12.5,29.6,20.6c5.1,4.7,8.9,10.4,11,17
	c2.1,6.7,2.6,13.8,4.7,20.5c2.6,8.5,8.1,17.4,17.5,19C148.2,291.4,148.7,289.7,147.5,289.4z M83.2,212.9c-0.8,1.1-1.5,2.3-2.3,3.4
	c-0.5,0.8-1,2-1.7,2.6c-2.7,2.1-5.1-1.3-6.2-3.3c-0.9-1.7-3-6.7,0.1-7.8c2.2-0.8,5.8,0.5,7.8,1.5c0.4,0.7,0.8,1.4,1.3,2
	c-2.4,0.4-4.7,1.6-6.6,3.1c-0.3,0.2,0.1,0.8,0.4,0.6c2.1-1.4,4.3-2,6.7-2.5c0.1,0,0.1,0,0.2-0.1C83,212.5,83.1,212.7,83.2,212.9
	C83.3,212.9,83.2,212.9,83.2,212.9z M87.3,213.7c-0.7-0.8-1.4-1.5-2-2.3c1.6-1.5,3.4-2.4,5.6-3c0.9-0.2,0.5-1.6-0.4-1.4
	c-2.2,0.4-4.5,1.7-6.1,3.4c-0.4-0.6-0.9-1.2-1.2-1.9c1.3-3.2,4.6-9.4,8.6-6c1.7,1.4,2.3,4.6,2.1,6.7c-0.2,2.8-2.8,5.8-5.8,4.4
	C87.8,213.3,87.5,213.4,87.3,213.7z"/>
<path class="st0" d="M174,119.2c-2.2-10.9-7.5-19.7-15.1-27.6c-0.5-0.5-1.4,0.2-1,0.8c12.2,16.1,15.9,38.5,9.8,57.6
	c-0.9,2.7,3.4,3.9,4.3,1.2C175.6,140.8,176.2,129.8,174,119.2z"/>
<path class="st0" d="M244.1,38.9c-0.8-5.6-10.5-6.6-14.7-6.1c-0.1,0-0.2,0.1-0.3,0.1c0-1.4-0.2-2.8-0.7-4.1
	C224.9,18.2,209.7,12,199.5,14c0,0,0,0,0,0c-0.3-2.3-1.2-4.4-2.3-6.4c-1.2-2-2.9-4.6-5.3-5.2c-1.7-0.4-3.5,0.4-4,2.1
	c-0.4,1.2-0.2,2.8-0.2,4c0,0.8,0,1.6,0,2.4c-3.5-3.8-9.5-6.9-13-2.1c-3,4-1,8.3,2.3,11c-3.9-0.1-7.7,2.3-7.5,6.9
	c0.4,7.4,10.1,5.8,14.9,4.6c0.3-0.1,0.5-0.3,0.6-0.6c-0.5,2.8-0.5,5.8,0.2,8.7c2.8,11.1,16.9,19.8,28.1,16.2
	c1.6-0.5,3.2-1.3,4.7-2.4c-0.5,4.1,0.5,9.2,5.4,9.4c4.3,0.1,5.5-3.9,5.2-7.6c1.7,2,3.8,3.6,6.4,3.9c2.7,0.3,5.3-0.8,6.5-3.3
	c1.8-3.8,0.1-8.6-3-11.4C241.6,44.4,244.6,42.7,244.1,38.9z M180.6,28.1c1.8-0.5,3.5-0.6,5.2-0.4c-0.4,1-0.7,2.1-0.9,3.1
	c0.1-0.4-0.2-0.9-0.8-1c-3.3-0.2-11,2.2-12.2-2.2c-1.3-4.6,3.6-6.5,7.3-6.3c0.7,0.3,1.4,0.6,2.1,0.8c1.2,0.3,2-1.5,0.8-2
	c-3.7-1.6-8.9-5.5-5.5-9.9c2.8-3.7,8,0.4,11,2.8c0,0.4,0,0.8,0,1.2c0.1,1.1,1.7,1.1,1.7,0c0.1-2,0.1-4.1,0.1-6.1
	c0-0.6-0.2-2.2,0.1-2.8c0.7-1.6,2.4-0.4,3.2,0.3c2.6,2.5,4,6.1,5.2,9.5c-1.4,0.5-2.8,1.3-4,2.1c-0.9-1.5-0.8-3-0.3-4.7
	c0.2-0.8-0.9-1.2-1.3-0.5c-1.1,1.9-0.7,4.2,0.5,5.9c-2.9,2.2-5.2,5.2-6.7,8.6c-1.9-0.8-4.2-0.8-6.1,0
	C179.2,26.9,179.6,28.5,180.6,28.1z M194.9,24.6c0.1,0.1,0.2,0.2,0.2,0.3c0.7,1.3,0.1,2.3-1.1,3c0-0.3,0.1-0.6,0.1-1
	c0.3-0.4,0.6-0.8,0.7-1.3C195,25.3,195,24.9,194.9,24.6z M212,53.2c0.8-1.5,0.9-3.4,0-4.9c-1.5-2.3-4.8-3.1-7.1-1.5
	c-2.1,1.5-2.5,4.5-1.1,6.4c-7.3-1.7-14.1-7.6-15.7-14.5c-0.7-3.2-0.6-6.1,0.2-8.9c0,0,0.1,0.1,0.1,0.1c2.6,0.9,5.7,1.4,8-0.4
	c1.8-1.4,2.5-3.7,1.5-5.8c-0.6-1.2-1.9-3-3.3-3.5c1.5-1.4,3.2-2.6,5-3.6c0.2,0.1,0.4,0.1,0.6,0c2.2-0.3,4.8-0.2,7.5,0.3
	c-3.4,0.5-5.8,4.3-3.8,7.6c2.5,4,8.5,2.6,9.1-2c0.3-2.2-1.1-3.8-2.8-4.6c0-0.2,0-0.3,0-0.5c7,1.9,13.9,6.3,15.7,12.7
	C228,38.4,220,51,212,53.2z M241,41.8c-1.8,1.9-4.5,1.2-6.6,0.5c-0.2-0.1-0.4,0-0.5,0.1c-0.2,0-0.4-0.1-0.6-0.1
	c-1.1,0-1.2,1.4-0.2,1.8c4,1.5,7.9,4.7,6.9,9.6c-0.6,2.8-3.2,3.8-5.8,3.1c-2.4-0.6-4.2-2.4-5.9-4.1c-0.1-0.4-0.2-0.7-0.3-1
	c-0.4-1-1.7-0.6-1.5,0.4c0.2,1.7,0.7,3.5,0.4,5.3c-0.3,1.8-1.7,3.9-3.9,3.3c-3.7-1-3.3-5.5-3.2-8.6c0.6-0.5,1.2-1.1,1.7-1.7
	c1.4,2.1,2,4.5,1.9,7.1c0,0.7,1,0.7,1.1,0c0.3-2.9-0.6-5.6-2.3-7.8c3-3.4,5.4-7.6,6.5-11.9c0,0,0,0,0.1,0.1c2.5,1.6,5.4,2.4,8.4,2.1
	c0.8-0.1,0.8-1.3,0-1.2c-2.8,0.2-5.5-0.2-8-1.6c-0.1-0.1-0.2-0.1-0.3,0c0.2-0.9,0.3-1.8,0.4-2.6c0.1,0,0.2,0.1,0.4,0.1
	c3.5,0.1,7.3,0.4,10.4,2.2C241.8,37.9,242.7,39.9,241,41.8z"/>
<path class="st0" d="M188.9,21.3c-2.1-1.4-4.2-2.9-6.3-4.3c-0.4-0.3-0.7,0.4-0.4,0.6c2.1,1.5,4.2,2.9,6.3,4.4
	C188.9,22.3,189.3,21.6,188.9,21.3z"/>
<path class="st0" d="M234.5,51.5c-0.7-1.6-2.3-2.9-3.5-3.9c-1.3-1-2.7-2-4.2-2.7c-0.2-0.1-0.5,0-0.6,0.2c0,0-0.1,0.1-0.1,0.2
	c0,0,0,0.1,0,0.1c0,0.2,0,0.5,0.2,0.6c1.3,1.1,2.8,2,4,3.1c1.2,1.1,2.1,2.4,3.4,3.4C234.2,52.8,234.7,52,234.5,51.5z"/>
<path class="st0" d="M201.1,35.5c-3.5-1.6-8.8,1.2-7,5.5c0,0.1,0.1,0.2,0.2,0.3c0.8,2.9,4.8,4.1,7.5,2.8
	C205.9,42.3,204.8,37.2,201.1,35.5z"/>
<path class="st0" d="M224.3,33.9c-0.4-3-2.9-4.5-5.4-4.4c-4.4-0.6-7.8,5.2-4.5,8.9c1.7,1.9,4.5,2.7,6.8,1.5
	C223.5,38.8,224.6,36.3,224.3,33.9z"/>
<path class="st0" d="M37.8,200.7c-4.8,1.5-9.4,3.9-13.9,6c-1.8,0.9-0.2,3.8,1.6,2.8c4.3-2.4,8.8-4.7,12.7-7.6
	C38.8,201.4,38.6,200.5,37.8,200.7z"/>
<path class="st0" d="M125.2,37.4c0.1-0.3,0-0.7-0.2-1c-6.2-7.3-15.2-11.1-24.8-10.5c-0.6,0-1,0.5-1,1c-0.1,2,0,3.7,0.6,5.7
	c0,0,0,0.1,0.1,0.1c-0.6,0.2-0.5,1.3,0.2,1.2c7.7-0.8,13.6,2.4,18.7,7.9c0.3,0.3,0.6,0.3,0.9,0.2c0.2,0.3,0.5,0.5,0.8,0.2
	c1.6-1.2,3.3-2.3,4.8-3.6C125.8,38.4,125.7,37.8,125.2,37.4z M120.3,41C120.2,40.9,120.2,40.9,120.3,41c-4-6.3-11.9-9.1-19-8.3
	c0,0,0-0.1,0-0.1c-0.3-2.6-0.6-4.7,2.5-4.5c2.5,0.1,5,0.6,7.4,1.4c4.8,1.6,8.9,4.6,12.2,8.4C122.3,38.9,121.3,39.9,120.3,41z"/>
<path class="st0" d="M68.1,16.1c-0.1-0.4-0.3-0.7-0.6-0.8c0.2-0.5-0.1-1.2-0.7-1.1c-2.4,0.2-4.7,0.6-7,0.9c-0.4,0.1-0.5,0.5-0.3,0.8
	c-0.5,0-1,0.3-1,0.9c0.2,5.3-1.1,9.8-4.9,13.7c-0.2,0.2-0.1,0.4,0,0.6c0,0,0,0-0.1,0c-0.9-0.5-1.6,0.5-1.3,1.3
	c0.4,1,1.6,1.8,2.5,2.4c0.9,0.6,2,1.3,3.2,1.5c0.4,0.1,0.6-0.1,0.8-0.3C65.5,31.7,69.1,24.1,68.1,16.1z M58.3,34.9
	c-0.9-0.6-1.8-1-2.6-1.7c-0.7-0.6-1.2-1.3-1.9-1.9c0.1,0,0.2,0,0.3-0.1c4.6-3.3,7.2-9,6.2-14.7c0-0.2-0.1-0.3-0.2-0.4
	c2-0.1,4.1-0.2,6.1-0.4c-0.1,0.2-0.1,0.4-0.1,0.6C67.2,23.5,64,30.6,58.3,34.9z"/>
<path class="st0" d="M147.2,11.9c-1.4-2.1-2.9-4-4.8-5.7c-0.3-0.3-1-0.4-1.3,0c-1.7,2-3.5,3.8-5.7,5.3c-0.7,0.5-0.4,1.4,0.2,1.7
	c0.7,1.7,1.6,3.2,2.6,4.6c0.3,0.4,0.7,0.6,1.2,0.3c2.5-1.6,5-3.3,7.5-5C147.3,12.9,147.5,12.4,147.2,11.9z M136.9,12.7
	c1.8-1.3,3.4-2.8,4.9-4.5c1.2,1.2,2.3,2.5,3.3,3.9c-2,1.4-4,2.7-6,4.1C138.3,15.1,137.5,14,136.9,12.7z"/>
</svg>
