<?xml version="1.0" encoding="utf-8"?>
<!-- Generator: Adobe Illustrator 23.0.0, SVG Export Plug-In . SVG Version: 6.00 Build 0)  -->
<svg version="1.1" id="OBJECTS" xmlns="http://www.w3.org/2000/svg" xmlns:xlink="http://www.w3.org/1999/xlink" x="0px" y="0px"
	 viewBox="0 0 528.3 455.2" style="enable-background:new 0 0 528.3 455.2;" xml:space="preserve">
<style type="text/css">
	.st0{fill:#ff7547;}
</style>
<path class="st0" d="M119.9,175.2c-1.6-0.4-3-0.9-4.7-1.1c-0.8-0.1-1.5-0.1-2.3-0.2c-0.4,0-0.8,0-1.1-0.2c-0.1-0.1-0.2-0.1-0.2-0.1
	c-0.3-1.4-2.1-2.5-3.1-1.1c-1.7,2.1-0.4,4.4,2.1,5.1c3,0.8,6.6-0.5,9.4-1.4C120.5,176.1,120.5,175.4,119.9,175.2z"/>
<path class="st0" d="M124.7,162.4c-1.7-1.2-3.1-2.6-4.2-4.3c-1-1.5-1.6-3.5-2.8-4.8c-1.5-1.4-3.6,0-3.3,1.9c0.4,2,2.6,3.8,4.1,5.1
	c1.7,1.4,3.6,2.4,5.5,3.4C124.8,164,125.4,162.9,124.7,162.4z"/>
<path class="st0" d="M161.9,165.1c-2.1,0.2-4,1.1-6,1.8c-1.9,0.7-3.8,1.3-5.6,2.2c-0.6,0.3-0.3,1.3,0.3,1.3c2-0.2,4-0.7,6-1.1
	c2-0.4,4.2-0.7,6-1.7C163.7,167,163.2,164.9,161.9,165.1z"/>
<path class="st0" d="M161,185.7c-3.5-1.4-7.1-2.5-10.8-3.3c-1.1-0.2-1.5,1.3-0.5,1.7c3.5,1.1,6.9,2.5,10.1,4.3
	C161.7,189.4,162.9,186.5,161,185.7z"/>
<path class="st0" d="M144.9,144.3c-1.8,2.8-2.9,7.1-1.8,10.3c0.2,0.6,1,0.6,1.2,0c0.4-1.5,0.5-3,1.1-4.4c0.5-1.6,1.4-2.9,2.2-4.3
	C148.6,144.2,146,142.7,144.9,144.3z"/>
<path class="st0" d="M210.6,379.3c-1.4,0.9-2.8,1.9-4.1,2.9c0.4-0.8,0.7-1.5,1.1-2.3c1-2.1-1.6-4.7-3.4-2.8c0.4-1.2-0.5-2.3-1.7-2.6
	c-0.3-0.5-0.8-0.9-1.3-1.1c3.7-5.1,7.8-10.4,10-15.9c0.6-1.7-1.7-2.7-2.8-1.6c-5.7,5.2-9.6,13.3-13.9,19.7
	c-5,7.4-9.9,14.7-14.9,22.1c-4.8,7.1-9.6,14.2-14.3,21.3c-3.2,4.8-7.2,9.8-9.4,15.3c-0.3-0.9-0.6-1.8-0.9-2.7
	c-1.8-5.8-3.5-11.7-5-17.6c-0.5-2.1-1-4.2-1.5-6.2c13-16,23.4-34.8,33.5-52.7c0.6-1.1,0-2.1-0.9-2.4c3.7-0.1,7.4-0.1,11.1,0.1
	c3.1,0.1,6.3,0.4,9.3,0.9c1.2,0.2,2.3,0.5,3.5,0.7c1.4,0.3,1.9,0.5,2,0.5c0.4,0.4,1,0.6,1.6,0.4c0.1,0,0.2-0.1,0.3-0.1
	c0.8-0.3,1.2-0.8,1.3-1.7l0-0.3c0.1-0.7-0.6-1.5-1.3-1.7c-10.3-2.7-20.7-2.6-31.2-2.3c-12.8,0.4-25.9,0.1-38.6,1.6
	c-0.6-5-1.1-10.1-1.6-15.1c-1.2-12.1-1.8-24.2-3.7-36.2c23-2.1,46.3-1.7,69,2.5c2.5,0.5,3.6-3.3,1.1-3.8c-4.1-0.8-8.2-1.5-12.4-2
	c2.9-4.6,4.8-10.4,5.3-16.4c3,0.4,6.7-0.5,9.6-1c1.9-0.3,4.4-2.2,2.3-4.1c-0.8-0.8-2.3-0.3-2.3,0.9c0,0.1-7,1.6-9.5,2.4
	c0.5-12.4-4.9-24.6-18.7-26.1c-10.1-1.1-19.6,4.3-27.9,9.6c-7.8,5-16.3,11.5-19.4,20.7c-2.7-2.6-6.6-3.8-10.3-3.5
	c-2.3,0.2-4.4,1.1-6.1,2.5c-11.6-15.9-36.1-29.8-55-17.7c-8.6,5.5-9.9,15.3-9.6,24.8c0.1,2.4,0.3,4.8,0.7,7.2
	c-12.7-0.2-24.4-1.3-36.4-5.9c-1.1-0.4-2.4,0.9-2,2c2.8,7.5,8,13,13.7,18.3c-7.6,1.6-15.2,2.3-22.9,2.1c-1,0-1.8,1.2-1.2,2.1
	c9.4,14.5,27.2,15.5,42.9,15.6c0.3,0,0.5-0.1,0.7-0.2c0.3,8.1,2.4,16.4,4.9,24c1.3,3.9,3.9,15,8.4,16.2c3,0.8,7.3-1.4,10.6-2.6
	c-0.1,0.2-0.2,0.4-0.2,0.7c1.7,14.1,6.4,28.1,10.5,41.6c2.1,6.9,4.4,13.8,6.7,20.7c2.2,6.3,4,13.1,7,19.1l0,0
	c-0.6,0.9,0.4,1.7,1.2,1.6c0.3,0.1,0.5,0.2,0.8,0.1c0.2,0.9,1.2,1.5,2.1,1.4c0.7,1,2.3,1.4,3.4,0.3c-0.1,1.9,2.1,3.6,3.6,1.8
	c0.7-0.8,1.3-1.6,2-2.4c0.2,0.2,0.5,0.3,0.8,0.1c4-3,6.5-8,9.4-12c3.1-4.4,6.4-8.8,9.3-13.4c1,3.1,2,6.3,3,9.4
	c2,5.7,3.8,11.9,7,17.1c0.9,1.5,3.4,0.5,2.9-1.2c-1.6-6-4.5-11.8-6.5-17.7c-2-6-3.8-12-5.5-18.1c-3.2-12.2-5.7-24.6-7.6-37.1
	c-4-25.5-4.1-51.3-7.4-76.9c1.5-0.2,2.9-0.4,4.4-0.6c5.1-0.7,10.2-1.3,15.4-1.8c0,12.9,1.3,25.9,2.5,38.7c1.2,12.7,2.6,25.4,4.5,38
	c2,13,4.4,25.9,7.7,38.6c1.7,6.5,3.5,12.9,5.6,19.3c1.9,5.9,3.7,12.2,6.7,17.6c0.8,1.4,2.6,0.9,3.1-0.2c1,0.3,2.1-0.2,2.6-1.2
	c0,0,0,0,0,0c0,0.1,0,0.1-0.1,0.2c-0.7,1.8,2.2,2.6,2.9,0.8c2.7-6.3,7-11.8,10.9-17.5c3.9-5.7,7.9-11.3,11.8-17
	c8-11.6,16-23.2,24-34.8C214.8,380.5,212.4,378.1,210.6,379.3z M149.9,265.7c7-4.6,15-9.7,23.6-10.4c2.5-0.2,4.8,0,6.8,0.5
	c-10.4,16.2-29.2,20.8-46.7,25.7C138.2,275.2,143.2,270.1,149.9,265.7z M63.2,265.6c17.8-9,35.5,3.8,48.2,15.6c-0.1,0-0.2,0-0.3,0
	c-18.5-0.9-35.9-3.5-52.2-12.5C60.1,267.5,61.5,266.4,63.2,265.6z M45.4,326.5c-0.2,0.1-0.3,0.3-0.3,0.6c-0.2-0.1-0.4-0.1-0.6-0.1
	c-13.7,0-29.9-0.5-39-12.1c7.9,0,15.8-1,23.5-2.8c1-0.2,1.4-1.6,0.6-2.3c-5.2-4.6-10.6-9.4-13.4-15.8c10.9,4,23.2,5.9,34.5,3.3
	c1.4,6.6,4.3,12.7,9.4,17.3c0.2,0.1,0.3,0.2,0.5,0.3c-5.4,3.1-10.6,6.8-15.3,11.3C45.3,326.2,45.4,326.4,45.4,326.5z M75.1,378.6
	c-1.1-3.8-2.3-7.5-3.7-11.2c-0.2-0.4-0.6-0.7-1-0.8c0.1,0,0.1,0,0.2-0.1c4.1-1.2,8.3-2.4,12.5-3.4c-2.4,4.5-4.8,8.9-7,13.4
	C75.7,377.2,75.4,377.9,75.1,378.6z M119.9,403.9c-0.1,0.1-0.2,0.1-0.2,0.2c-9.3,11.3-18.4,24.2-24.8,37.6
	c-1.5-4.3-3.3-8.5-4.7-12.7c-0.2-0.5-0.4-1.1-0.5-1.6c6.5-16.3,18.2-29.9,26.2-45.4C116.9,389.3,118.3,396.6,119.9,403.9z
	 M112.6,358c-0.5,0.1-0.9,0.4-1.2,0.8c-5.1,8.6-9,18.1-13.7,27c-4.4,8.5-9.3,16.8-13.3,25.4c-0.3-1-0.6-2-1-3
	c-1.5-4.8-2.8-9.6-4.1-14.5c0-0.1,0.1-0.1,0.1-0.2c5.3-10.7,10.3-21.5,16.6-31.7c0.3-0.6,0.3-1.2,0.1-1.7c5.4-1.1,10.9-2,16.3-3
	C112.5,357.4,112.5,357.7,112.6,358z M112.1,354.1c-15.6,2-31.1,5.7-46.1,10.5c-1.2,0.4-4.2,1.8-5.4,1.8c-2.6-0.1-2.9-2.2-3.8-4.1
	c-1.9-4.2-3.6-8.5-5-12.9c-2.3-7.4-3.4-14.9-4.9-22.5c-0.1-0.5-0.5-0.7-0.9-0.7c17.7-15,41.2-20.2,63.8-23.7
	C109.2,319.5,110.2,336.9,112.1,354.1z M62.8,313.7c0.1-0.4,0-0.9-0.4-1.4c-6.1-6.6-8.6-15.1-8.9-24.1c-0.2-6.6,0.4-13.5,4.3-18.4
	c14.9,11.4,35.2,13.4,53.3,14.3c0.3,0,0.6-0.1,0.8-0.2c-0.6,1.1-1.1,2.2-1.4,3.5c-0.9,4.1,0.3,9.1,4,11.4
	C96.8,301.7,78.6,305.3,62.8,313.7z M128.7,296c-0.4,0.3-0.5,0.6-0.6,1c-1.2,0.1-2.4,0.3-3.6,0.5c0.1-0.1,0.2-0.3,0.2-0.5
	c0.3-3.5-1.4-6.8-3.9-9.1c-0.5-0.4-1.1,0.2-0.7,0.7c2,2.4,2.6,5.3,2.4,8.4c0,0.3,0.1,0.6,0.3,0.7c-2.1,0.3-4.3,0.6-6.4,0.9
	c-4.8-5.2-5-15.3,3.3-17.1c3.5-0.8,7.7,0.5,10,3.3C132.4,288.1,132.3,293.4,128.7,296z M133.1,285.3c-0.3-0.7-0.8-1.3-1.2-1.9
	c0.1,0,0.1-0.1,0.2-0.1c0.1,0,0.2,0.1,0.4,0c18.8-3.4,39.4-9.6,50.1-26.7c12.9,5.6,12.9,26.7,5.3,38.2c-0.2,0.4-0.3,0.7-0.3,1
	c-18.5-2-37.1-1.3-55.6,0.8C134.5,293.5,134.9,288.9,133.1,285.3z M151.9,372.8c-0.4,0.4-0.8,0.7-1.2,1.1c1-1.4,2-2.8,2.9-4.2
	c0.5-0.8,1.1-1.5,1.6-2.3C154,369.2,152.9,371,151.9,372.8z M177.7,354.7c0.2,0,0.4,0,0.6,0c-0.3,0.5-0.5,0.9-0.8,1.4
	c0-0.1,0-0.2,0-0.3C177.5,355.4,177.6,355.1,177.7,354.7z M163.8,354.7c0,0.3,0.1,0.7,0.3,1c-0.5,0.1-0.9,0.3-1.2,0.8
	c-0.4,0.6-0.9,1.2-1.3,1.8C162.2,357.1,163,355.9,163.8,354.7z M144.1,386.1c0,0.3,0,0.5,0,0.8c-0.1-0.5-0.2-0.9-0.3-1.4
	c0.2-0.4,0.4-0.9,0.6-1.3c0.1,0.1,0.1,0.1,0.2,0.2c0,0.2,0,0.4,0,0.7C144.3,385.2,144.1,385.5,144.1,386.1z M143,380.6
	c-0.3-1.7-0.6-3.4-0.8-5.1c-1.2-7.4-2.1-14.9-3-22.3c7.1,0.5,14.3,0.4,21.5,0.1c-4.1,5.5-7.9,11.4-11.7,17.1
	C146.9,373.7,144.4,376.9,143,380.6z M147.6,404.2c0.3,0.1,0.7,0.2,1,0.2c-0.2,0.4-0.5,0.8-0.7,1.3
	C147.8,405.1,147.7,404.6,147.6,404.2z M158.3,436.6c-0.2,0.9-0.4,1.8-0.6,2.7c-0.1-0.3-0.2-0.5-0.3-0.8
	C157.7,437.9,157.9,437.2,158.3,436.6z"/>
<path class="st0" d="M185.4,266c-0.3-0.5-1.1-0.2-0.9,0.4c2.1,6.3,1.6,13-3.4,17.8c-1.8,1.7,1.2,4.2,2.7,2.1
	C188,280.5,189.3,272.4,185.4,266z"/>
<path class="st0" d="M265.7,201.1c-2.5-7.6-4.5-15.2-6.6-23c-0.2-0.8-1.5-0.7-1.5,0.2c0.3,8,2.3,16.1,5.3,23.5
	C263.6,203.5,266.3,202.9,265.7,201.1z"/>
<path class="st0" d="M452,55.4c-2.7-0.3-5.4-0.7-8.2-1c3-2.8,6-5.7,8.8-8.7c0.9-0.9,0-2.5-1.2-2.1c-5.6,1.5-11.3,2.5-17.1,2.9
	c-4.5,0.3-9.5-0.4-13.9,0.7c1.4-5.8,0.8-11.8-5.6-14.5c-4.4-1.9-10-0.6-14.6,0.1c-6.6,1-13.3,2.5-19.4,5.2c-0.9-1.4-2.3-2.4-4-2.8
	c-1.2-0.3-2.4-0.2-3.5,0.1c-4.6-9.6-13.1-19.3-24.8-18c-8,0.8-12,6.3-13.5,13c-5.2-4.8-10.4-9.5-15.6-14.2c-0.9-0.8-2.2-0.2-2.3,1
	c-0.3,3.3,0.3,6.3,1.7,9.1c-2.9-0.4-5.8-0.8-8.7-1.2c-1.1-0.1-1.8,1.3-1.2,2.1c3.8,5.8,8.8,11,14.9,14.4c-0.4,0.3-0.8,0.6-1.2,1
	c-3.7,4.3-5.6,11.5-6.4,16.9c-0.2,1,1.3,1.5,1.6,0.4c1.3-4.3,2.9-11.6,6.3-14.8c4-3.7,13.7-1.5,18.7-1.1c7.2,0.6,14.4,1.4,21.5,2.4
	c-1.9,6.1-3.8,12.2-5.8,18.3c-13.7-2.4-27.9-4.4-41.6-4.2c-0.3,0-0.4,0.5-0.1,0.6c11.3,1.8,22.6,3,33.9,4.6
	c-4.4,3.4-4.1,11.5,2.2,12.7c0.6,0.1,1.1-0.2,1.4-0.7c-1.3,4.1-2.7,8.1-4,12.2c-4.8,14.4-10.5,28.7-14.5,43.3
	c-3.5-1-6.9-2.1-10.3-3.3c-3.9-1.4-7.7-2.8-11.5-4.4c0.3-0.3,0.6-0.6,0.8-0.9c1.9-2.3,2.5-5.7,0.1-7.9c-0.4-0.3-0.8-0.6-1.2-0.8
	c-1.4-1.4-3.7-1.9-5.5-1.3c-0.1,0-0.2,0.1-0.3,0.1c0,0-0.1,0-0.1,0c-0.1,0-0.2,0.1-0.3,0.2c0,0-0.1,0-0.1,0c-0.1,0-0.2,0.1-0.2,0.2
	c-0.1,0-0.1,0.1-0.2,0.1c0,0-0.1,0-0.1,0.1c-0.6,0.5-1.2,1.3-1.4,2.3c-0.1,0.5-0.2,1-0.2,1.6c0,0.1-0.1,0.3-0.1,0.4
	c-0.7-1.4-1-3.2-0.5-5.6c0.8-3.9,2-7.9,3.5-11.9c3,1.9,7.3,1.3,9.4-1.8c2.8-4,0.4-9.5-3.9-11c-0.2-0.1-0.4-0.1-0.6-0.1
	c0,0,0,0,0-0.1c3.2-8.8,6.6-17.5,9.9-26.2c0.3-0.9-1.1-1.5-1.5-0.7c-7.3,14.6-13,30-18.2,45.5c-1.8,5.5-4.1,11.4,0.7,16
	c4.4,4.2,11.6,6,17.1,8.1c15.6,5.7,31.7,9.8,48.2,12.2c6.1,0.9,13,2.5,18.9-0.2c4.9-2.3,8.4-6.8,11.1-11.4c9-15.4,14.4-33.5,17.5-51
	c0,0,0,0,0-0.1c0.9,0.3,1.8,0.6,2.7,0.9c0.6,0.2,1.1-0.1,1.4-0.5c0.6-0.1,1.1-0.6,1.1-1.4c0.1-4.7,3.2-9,3.4-13.6
	c10.1,0.3,19.7-3.1,27.6-9.3C453.9,56.8,453,55.5,452,55.4z M334.7,40.6c-2.9-0.3-6.4-0.9-9.2,0c-4.8-3.7-9-7.6-12.5-12.5l8.4,1.1
	c1,0.1,1.8-1.3,1.2-2.1c-1.6-2.2-2.5-4.5-2.7-7c4.4,4,8.9,8,13.3,12c0.5,0.4,1,0.4,1.5,0.2C334.4,35,334.4,37.9,334.7,40.6z
	 M406.9,34.6c4.5-0.3,8.9,0.5,10.7,4.6c-11.4,5.1-23.7,4.7-35-0.3C390.7,37.3,398.6,35.2,406.9,34.6z M381.8,41.1
	c0-0.6-0.1-1.1-0.3-1.6c11.1,6.7,25,7.2,36.7,1.9c0.9,4.8-1.7,9.3-3.9,13.3c-4.9-1.9-10.3-3.1-15.3-4.4c-6.4-1.6-12.8-3-19.2-4.3
	C381.2,44.7,381.9,42.8,381.8,41.1z M376.1,37.7c1.7,0.4,3,1.7,3.1,3.4c0.1,2-1.2,3.2-2.7,4.2c0,0-0.1,0.1-0.1,0.1
	c-1.4-0.3-2.9-0.5-4.3-0.7c0,0,0-0.1,0-0.1c-0.6-1.6-1-3.2-0.2-4.8C372.6,38.1,374.3,37.3,376.1,37.7z M350.7,19.9
	c9.9,0.1,16,8.6,21.2,15.9c-0.6,0.4-1.1,0.8-1.6,1.4c-0.1-0.1-0.3-0.2-0.5-0.3c-4.5-0.6-8.9-1.7-13-3.9c-4.3-2.3-11.4-6.6-11.5-12.3
	C346.9,20.2,348.6,19.9,350.7,19.9z M336.9,40.8c0.4-7.3,1.1-15.7,6.9-19.2c-0.1,4.1,3.7,7.5,6.9,10c5.4,4.2,11.9,6.7,18.7,7.5
	c-0.6,1.7-0.5,3.8,0.5,5.3C358.9,42.6,347.9,41.4,336.9,40.8z M367.1,46.8c3.7,0.6,7.3,1.2,11,1.9c0.8,0.1,1.5,0.3,2.3,0.5
	c-1.9,6.2-3.8,12.4-5.7,18.6c-2.1-0.4-4.2-0.8-6.3-1.2c-2.3-0.4-4.7-0.9-7-1.3C363.3,59,365.2,52.9,367.1,46.8z M350.3,137.1
	c-4.4-1-8.7-2.2-13-3.4c6.2-13.6,10.7-28,15.4-42.1c2.7-8.1,5.4-16.2,8-24.4c2.7,0.5,5.4,0.9,8,1.5c1.8,0.4,3.5,0.7,5.2,1.1
	c-2.4,7.9-4.9,15.8-7.3,23.7c-4.5,14.7-9.7,29.4-13.2,44.4C352.4,137.6,351.3,137.4,350.3,137.1z M413.6,80.6
	c-0.4,2.5-0.9,5.1-1.5,7.6c0,0,0,0,0,0c-4.5-0.4-10.1,2-10.9,7c-0.6,3.9,2.9,8.7,7.2,7.5c-3,9.8-6.9,19.4-11.9,28.1
	c-4.2,7.2-9.1,11.2-17,11.1c0,0,0-0.1,0-0.1c-0.5-3.4-3.3-6.4-6.8-6.7c-3.2-0.2-6.5,1.9-7.3,5.1c-3.3-0.6-6.6-1.2-9.9-1.9
	c2-5,3.7-10.1,5.4-15.3c0.6,0.2,1.2,0.2,1.8-0.2c5.2,1.4,10.3-3.8,8.5-9.3c-0.7-2.1-3.4-5.7-5.9-4.4c0,0-0.1,0-0.1,0.1
	c1.5-5,3-10,4.5-15c2.5-7.9,4.9-15.9,7.4-23.8c2.2,0.5,4.5,1,6.7,1.6c-0.2,0.1-0.4,0.3-0.5,0.6c-1.5,3.7,1.1,8.1,4.6,9.5
	c3.9,1.4,8.3-0.7,10-4.4c0.4-0.8,0.1-1.6-0.5-2.1c5.6,1.5,11.1,3.1,16.6,4.9C413.7,80.5,413.6,80.5,413.6,80.6z M419,79.4
	c-13.7-4.4-27.5-8.2-41.6-11.2c1.9-6.2,3.8-12.4,5.7-18.6c9.1,1.9,18.1,4.1,27,6.8c5.5,1.6,12.4,4,12,10.9
	C422,71.6,419.5,75.2,419,79.4z M425.1,64.2c-0.9-3.9-4.2-6.6-7.6-8.2c-0.2-0.1-0.4-0.2-0.5-0.2c1.3-2.3,2.6-5.1,3.4-7.9
	c4.5,1.9,10.2,1.3,15,1c4.2-0.3,8.4-0.9,12.6-1.8c-2.5,2.5-5.1,5-7.8,7.4c-0.9,0.8-0.1,2.1,0.9,2.2c2.6,0.3,5.2,0.6,7.8,0.9
	C441.7,62.2,433.7,64.4,425.1,64.2z"/>
<path class="st0" d="M331.4,112.9c-2-0.5-4.4,0.2-5.1,2.3c-0.2,0.1-0.3,0.2-0.5,0.3c-0.6,0.5-1.1,1.3-0.8,2.1c0,0.1,0,0.1,0.1,0.2
	c-0.6,3.7,4,7.1,7.6,5.1C336.8,120.4,336.1,114.1,331.4,112.9z"/>
<path class="st0" d="M335.8,87.8c-0.5-0.1-1.1-0.2-1.6-0.2c-0.2-0.5-0.7-0.8-1.3-0.7c-3.1,0.5-5.5,3.5-5.2,6.7
	c0.2,3,2.8,5.3,5.7,5.6c3,0.3,5.7-1.6,6.3-4.5C340.2,91.9,338.8,88.6,335.8,87.8z M335.7,93.8c-0.1,0.3-0.2,0.5-0.4,0.7
	c-0.3,0.3-0.7,0.4-1.2,0.4C334.7,94.6,335.2,94.3,335.7,93.8z"/>
<path class="st0" d="M326.2,68c-0.1,0.1-0.2,0.2-0.3,0.4c-2.6,1.9-2.3,7.2-0.1,9.3c3.7,3.6,10.2,0.5,10.9-4.2
	C337.5,67.8,330.3,63.5,326.2,68z"/>
<path class="st0" d="M386.6,93.1c-0.2,0-0.3,0-0.5-0.1c-0.1-0.1-0.3-0.2-0.6-0.3c-5.9-1-10,6.5-5.5,10.7c4.2,3.9,11.4,1.1,11.2-4.9
	C391.1,95.9,389.3,93.6,386.6,93.1z M384.9,99.2c0-0.4,0.6-1.1,0.9-0.7c0.5,0.7-0.3,1.1-0.9,1C384.9,99.4,384.9,99.3,384.9,99.2z"/>
<path class="st0" d="M392.2,115.4c-5.1-3.5-9.8,6.7-8,10.9c1.3,3.1,5.2,3.9,8.2,2.9c2.8-1,5.1-3.5,5.5-6.4
	C398.5,118.9,395.4,115.9,392.2,115.4z"/>
<path class="st0" d="M527.9,128.1c0.3-1.1-0.9-2.4-2-1.6c-6.7,5-15.1,6.7-23.4,6.7c-8.8-0.1-15.9-3.1-21.8-9.5c2.5-0.8,4.8-2,7-3.6
	c4.7-3.4,8.1-8.5,7.5-14.5c-0.6-6.2-5.2-11.6-11.3-13.1c-13.1-3.3-22.6,9.4-19.9,21.3c-0.4-0.3-0.8-0.7-1.2-1.1
	c-0.2-0.3-0.5-0.3-0.8-0.1c-5.6-6.7-3.5-20,2.1-25.9c0.1-0.1,0.1-0.1,0.1-0.2c1.1,0.7,2.2-1.1,1-1.8c-1.5-0.9-3.1-1.8-4.6-2.7
	c0-0.2-0.2-0.4-0.5-0.3c0,0,0,0-0.1,0c-0.5-0.2-1,0-1.1,0.5c-5.3,2.3-8.1,7.6-9.9,13c-2.4,7.3-2.4,13.7,2.4,19.9
	c4.4,5.7,11,9.1,17.8,9.8c9,22.1,40.3,21.3,57.9,11.6c0.6-0.3,0.8-1,0.6-1.6C528.5,132.6,528.4,130.2,527.9,128.1z M453.1,112.2
	c-6.3-8.8-1.6-22.5,6.4-29c1.1,0.8,2.3,1.5,3.5,2.3c-5.3,3.5-6,11.1-6.1,16.9c-0.2,5.9,1.7,12.6,7.9,14.6c0.3,0.1,0.6,0,0.9-0.2
	c5.3,2.3,13.2-1.1,17.1-4.7c2.5-2.3,4-5.5,3.2-8.9c-0.6-2.8-2.8-5.6-6-5.3c0,0,0,0-0.1,0c-2.1-0.2-4.5,2.3-5.6,3.8
	c-2.3,3.3-4,8.3-2.7,12.3c0.3,1,1.7,0.8,1.8-0.2c0.1-2.8,0-5.4,1.1-8c0.5-1.3,2.8-5.6,5-6.2c5.8,3.1,4.3,9.3-0.7,12.4
	c-3.2,2-7.8,3.9-11.7,3.2c0-0.1,0-0.2,0-0.2c-2.7-10.4,5.6-22.9,17.3-18.7c5.9,2.1,9,9.1,6.9,14.8c-1.9,5.1-7.3,8.6-12.3,10.1
	C469.5,123.9,459,120.3,453.1,112.2z M493.8,139c-9.1-1.8-16.3-6.9-21.8-14c2.4,0.1,4.7-0.2,7-0.8c4.1,7.7,13.5,11,21.8,11.5
	c8.2,0.5,18.7-0.6,25.4-5.9c-0.1,1.4-0.3,2.7-0.5,4.1C515.5,138,504.9,141.2,493.8,139z"/>
<path class="st0" d="M343.5,171.4c-1.1-0.3-2.4,0.9-1.6,2c5,6.7,6.7,15.1,6.7,23.4c-0.1,8.8-3.1,15.9-9.5,21.8c-0.8-2.5-2-4.8-3.6-7
	c-3.4-4.7-8.5-8.1-14.5-7.5c-6.2,0.6-11.6,5.2-13.1,11.3c-3.3,13.1,9.4,22.6,21.3,19.9c-0.3,0.4-0.7,0.8-1.1,1.2
	c-0.3,0.2-0.3,0.5-0.1,0.8c-6.7,5.6-20,3.5-25.9-2.1c-0.1-0.1-0.1-0.1-0.2-0.1c0.7-1.1-1.1-2.2-1.8-1c-0.9,1.5-1.8,3.1-2.7,4.6
	c-0.2,0-0.4,0.2-0.3,0.5c0,0,0,0,0,0.1c-0.2,0.5,0,1,0.5,1.1c2.3,5.3,7.6,8.1,13,9.9c7.3,2.4,13.7,2.4,19.9-2.4
	c5.7-4.4,9.1-11,9.8-17.8c22.1-9,21.3-40.3,11.6-57.9c-0.3-0.6-1-0.8-1.6-0.6C348,170.8,345.7,170.9,343.5,171.4z M327.7,246.1
	c-8.8,6.3-22.5,1.6-29-6.4c0.8-1.1,1.5-2.3,2.3-3.5c3.5,5.3,11.1,6,16.9,6.1c5.9,0.2,12.6-1.7,14.6-7.9c0.1-0.3,0-0.6-0.2-0.9
	c2.3-5.3-1.1-13.2-4.7-17.1c-2.3-2.5-5.5-4-8.9-3.2c-2.8,0.6-5.6,2.8-5.3,6c0,0,0,0,0,0.1c-0.2,2.1,2.3,4.5,3.8,5.6
	c3.3,2.3,8.3,4,12.3,2.7c1-0.3,0.8-1.7-0.2-1.8c-2.8-0.1-5.4,0-8-1.1c-1.3-0.5-5.6-2.8-6.2-5c3.1-5.8,9.3-4.3,12.4,0.7
	c2,3.2,3.9,7.8,3.2,11.7c-0.1,0-0.2,0-0.2,0c-10.4,2.7-22.9-5.6-18.7-17.3c2.1-5.9,9.1-9,14.8-6.9c5.1,1.9,8.6,7.3,10.1,12.3
	C339.4,229.8,335.7,240.3,327.7,246.1z M354.5,205.5c-1.8,9.1-6.9,16.3-14,21.8c0.1-2.4-0.2-4.7-0.8-7c7.7-4.1,11-13.5,11.5-21.8
	c0.5-8.2-0.6-18.7-5.9-25.4c1.4,0.1,2.7,0.3,4.1,0.5C353.5,183.8,356.7,194.4,354.5,205.5z"/>
<path class="st0" d="M232.8,128.4c-2.8-6.6-8.3-10.6-14.7-13.2c-0.5-0.2-1-0.4-1.5-0.6c2.3-1.7,5.9-4.5,5.6-7.2
	c-0.3-2.7-4.6-5-6.8-5.7c-2.6-0.8-5.4,0-6.5,2.7c-1,2.5,0,5.4,1.2,7.8c-7.5-3-14.8-7-15.5-16c0-0.1,0-0.1-0.1-0.2
	c3,1.1,6.4,1.1,7.1-2.8c0.7-4-2.6-6.7-5.8-8.3c21.6-26.1,1.8-72.1-30.4-80.7c-17.7-4.7-36,3-43.4,20.1c-6.9,16-3.5,34.6,6.7,48.4
	c13.1,17.7,36.1,26,57.3,19.6c0.1,0.1,0.2,0.1,0.3,0.2c-0.7,3-0.7,6.5,2.8,7.5c1.2,0.3,2.6,0.3,3.5-0.6c0.5-0.4,0.7-0.9,0.8-1.4
	c0.6,6.3,5.7,11.1,11.2,13.9c0.8,0.4,1.6,0.8,2.5,1.1c-1.4,0.3-2.7,1.2-3.6,2.4c-2,2.6-1.5,5.8,0.7,8.1c1.6,1.6,5.8,4.8,8.2,3.7
	c1.3-0.6,1.7-2.3,2-3.6c0.6-2.2,1.1-4.5,1.2-6.8c0-0.9-1.5-1.2-1.6-0.2c-0.4,2.1-0.6,4.1-1.2,6.1c-0.5,1.8-1.3,2.8-3.5,2
	c-0.8-0.3-1.7-0.9-2.4-1.5c-4.6-3.4-2.1-9,3.4-8.8c0.1,0,0.2,0,0.3-0.1c0.2,0.1,0.3,0.1,0.5,0.2c-1.8,1.4-2.6,4-1.8,6.2
	c0.2,0.7,1.3,0.4,1.1-0.3c-0.4-2,0.3-3.6,1.7-5.1c0.1-0.1,0.2-0.2,0.2-0.4c6.9,2.6,13.9,5,17.9,11.9c5.8,10,2.3,19.7-4.5,28
	c-4.5,5.6-9,12.4-5.5,19.7c0.4,0.8,1.8,0.2,1.5-0.6c-4.4-10.7,7.4-17.9,11.4-26.5C235.5,141.5,235.3,134.4,232.8,128.4z M186,89.5
	c-0.2,0.2-0.4,0.4-0.5,0.6c-17.4,3.2-35.7-1.1-48.5-13.6c-11.1-10.9-17.2-26.7-14.3-42.2c3.1-16.8,16.5-28.8,34.1-27.9
	c17.5,1,32.1,14.3,39.4,29.6C204.7,54.1,202.7,76.8,186,89.5z M192.3,93.8c-1,1.3-0.2,4.1-2.1,4.4c-3.2,0.3-2.7-3.9-2.2-6.2
	c2.3-1.7,4.4-3.5,6.2-5.5c1.9,1,4.1,1.9,5.1,4c0.4,1,0.7,2.4,0,3.4c-1.5,2.1-4,0.6-5.6-0.3C193.2,93.2,192.7,93.4,192.3,93.8z
	 M214.7,113.9C214.6,113.9,214.6,113.9,214.7,113.9c-0.1-0.1-0.1-0.2-0.1-0.2c-0.2-2.1,0.1-4.1,0.7-6.1c0.3-1.1-1.4-1.5-1.7-0.5
	c-0.6,2.1-0.6,4.2-0.2,6.3c-0.6-0.2-1.2-0.5-1.8-0.7c0.1-0.1,0.1-0.3,0-0.5c-1.2-2.9-3-10.2,2.9-8.9c1.4,0.3,4.4,1.7,5.1,3
	c1.8,3-2.9,6-4.8,7.4C214.8,113.8,214.7,113.8,214.7,113.9z"/>
<path class="st0" d="M190.6,36.9c-1.8-3.7-4.1-7.2-6.8-10.4c-3.4-4-8-6.7-11.1-11c-0.4-0.6-1.3-0.1-1,0.6c1.5,3.4,4.2,5.6,6.8,8.2
	c3.2,3.4,5.8,7.3,7.8,11.6c3.7,8.2,5,17.3,3.9,26.2c-0.4,2.8,4.1,2.8,4.5,0C195.7,53.4,194.4,44.9,190.6,36.9z"/>
<path class="st0" d="M262.9,270.2c-0.9-1.6-1.8-3.3-2.7-4.9c-0.2-0.4-0.9-0.2-0.9,0.2c-0.3-0.1-0.6-0.2-0.9,0
	c-7.7,3.8-13.8,9.7-18,17.3c-0.2,0.4-0.1,1.1,0.4,1.4c2.1,1.1,4.2,2.1,6.3,3c0.2,0.1,0.3,0.1,0.4,0c0,0.1,0,0.3,0,0.4
	c0,0.4,0.6,0.5,0.7,0.1c1.1-7,6.1-12.7,13-14.6c1-0.3,0.6-1.8-0.4-1.5c-6.9,1.9-12,7.6-13.1,14.5c-1.6-1.1-3.3-2.2-5-3.2
	c4-6.8,9.6-12.2,16.7-15.8c0.2-0.1,0.3-0.2,0.3-0.3c0.5,1.4,1,2.7,1.5,4C261.7,272.2,263.6,271.3,262.9,270.2z"/>
<path class="st0" d="M241,240c-0.1-0.1-0.2-0.2-0.3-0.3c-6-2.5-9.7-8.2-9-14.8c0.1-0.5-0.6-0.9-1-0.8c-2.3,0.7-4.5,1.5-6.8,2.3
	c-0.3,0.1-0.3,0.3-0.2,0.5c0,0,0,0.1-0.1,0.1c-1.7,9.1,5.4,19.1,14.8,20c0.4,0,0.6-0.2,0.7-0.5c0.1,0,0.2-0.1,0.2-0.1
	c1.3-1.7,2.5-3.6,3.2-5.7C242.8,239.8,241.6,239.4,241,240z M238.6,245.5C238.6,245.5,238.6,245.5,238.6,245.5
	c-8.8-2.2-14.4-9.1-13.9-18.3c0-0.1,0-0.1,0-0.2c1.8-0.4,3.5-0.7,5.3-1.1c-0.4,6.7,3.7,13.1,10.1,15.4c0.1,0.1,0.3,0,0.4,0
	C239.9,242.7,239.4,244.1,238.6,245.5z"/>
<path class="st0" d="M266.3,79.5c-1.9-6.1-7-11.1-13.3-12.5c-2-0.4-4.7-0.7-6.3,0.9c-1.4,1.4-1.5,3.6-0.1,4.9
	c0.3,0.3,0.8-0.1,0.6-0.5c0.2-1.1,0.5-2.2,0.7-3.2c0.8-0.2,1.5-0.4,2.3-0.7c0.9-0.1,1.9,0.2,2.7,0.4c1.8,0.4,3.4,1.3,4.9,2.3
	c3,2,5,4.9,6.2,8.2c-1.3,0.7-2.4,1.6-3.2,2.8c-1.3-5.8-7.3-9.9-13.1-9.9c-0.6,0-0.6,1,0,1c5.9,0.2,10.3,4.3,11.8,9.9
	c0.2,0.6,0.8,0.6,1.2,0.3c0.2,0.1,0.4,0.1,0.6-0.1c1.1-1.2,2.3-2.1,3.9-2.6C265.9,80.8,266.6,80.3,266.3,79.5z"/>
<path class="st0" d="M280.7,35l-4.4-1.7c-0.4-0.1-0.7,0.1-0.8,0.4c-0.2,0-0.4,0.1-0.6,0.2c-4.6,3.7-6.2,10.5-4.8,16.1
	c-0.2,0.2-0.2,0.7,0.2,0.8c0,0,0.1,0,0.1,0c0.1,0.1,0.3,0.2,0.5,0.2c1.2,0.4,2.4,0.9,3.6,1.2c0,0.1,0,0.1,0.1,0.2
	c0.4,1.1,2.2,0.7,1.8-0.5c-2-5.9,1.6-11.1,4.8-15.7C281.5,35.7,281.1,35.2,280.7,35z M274,50.2c-0.3-0.1-0.6-0.1-0.8,0.1
	c-0.5-0.1-1-0.2-1.6-0.3c-1.1-5.8,0.7-10.4,4.5-14.9c0.1-0.1,0.2-0.2,0.2-0.4c1,0.4,2,0.9,3,1.3C276.1,40.2,273.2,45.1,274,50.2z"/>
<path class="st0" d="M144.1,109c-0.7-2.5-3.5-3.9-5.9-3.1c0.5-0.3,1.1-0.5,1.8-0.6c0.5-0.1,0.3-0.8-0.1-0.8c-2.8,0-5.5,2.3-5.4,5.3
	c0.1,2.7,2.5,5.2,5.3,5C142.5,114.6,144.8,111.7,144.1,109z M138.8,113.3c-2-0.4-3.4-2.6-2.9-4.6c0.3-1.1,0.9-1.9,1.8-2.5
	c-0.3,0.5,0.2,1.3,0.8,1.1c1.7-0.5,3.7,0.2,4.2,2.1C143.3,111.6,140.9,113.7,138.8,113.3z"/>
<path class="st0" d="M276.7,116.2c-1.1-1.5-2.2-3.1-3.3-4.6c-0.6-0.8-1.2-2.1-2.3-2.3c-0.9-0.2-1.6,0.4-2.3,0.9
	c-1.1,0.7-2.5,1.3-3.1,2.5c-0.1,0.2,0,0.3,0.2,0.3c0.9,0.1,0.9,0,1.7-0.4c0.6-0.3,2.1-1.5,2.7-1.4c1.1,0.1,2.2,2.3,2.8,3.1
	c0.5,0.7,1,1.4,1.5,2.1c-1.7,1-3.3,2.1-4.9,3.2c-1-2.3-2.3-4.2-4.2-5.9c-0.9-0.8-2.2,0.5-1.3,1.3c1.9,1.7,3.5,3.7,4.3,6.1
	c0.2,0.5,0.7,0.8,1.2,0.5c2.3-1.3,4.5-2.7,6.7-4.1C276.8,117.2,277,116.6,276.7,116.2z"/>
<path class="st0" d="M252.9,317.7c-0.1-0.9,0-2.1-0.5-2.8c-0.5-0.8-1.3-0.9-2.1-0.9c-1.4-0.1-2.9,0-4.3,0.1
	c-0.4-0.5-1.4-0.4-1.5,0.5c-0.1,1.7,0,3.4,0,5.1c0,1-0.2,2.3,0.5,3.2c0.7,0.8,1.7,0.7,2.7,0.7c1.6,0,3.2-0.1,4.8-0.2
	c0.4,0,0.8-0.3,0.7-0.7C253.2,321,253.1,319.3,252.9,317.7z M246.1,321.1c-0.3-0.8,0-2.2,0-3.1c0-1,0-2,0-3.1
	c1.9-0.1,5.1-0.2,5.3,1.5c0.2,1.8,0.2,3.6,0.3,5.4C250,322,246.5,322.3,246.1,321.1z"/>
<path class="st0" d="M439.7,139.4c-2-1.8-4-3.8-6.1-5.5c-0.3-0.2-0.8-0.1-1,0.1c-1.6,1.4-2.9,2.9-3.7,4.8c0,0.1,0,0.2,0,0.3
	c-1.1-0.3-1.9,1.2-0.8,1.9c2,1.4,4,2.8,5.7,4.6c0.4,0.4,1.1,0.4,1.5,0c1.5-1.6,3.1-3.2,4.5-4.9C440,140.4,440.1,139.8,439.7,139.4z
	 M429.3,139.4C429.4,139.4,429.4,139.4,429.3,139.4c1.2-1.4,2.3-2.6,3.7-3.6c1.4,1.5,3,2.9,4.5,4.3c-1.1,1.1-2.1,2.1-3.1,3.2
	C432.9,141.9,431.2,140.4,429.3,139.4z"/>
</svg>
